<svg width="1402" height="731" viewBox="0 0 1402 731" fill="none" xmlns="http://www.w3.org/2000/svg">
<g clip-path="url(#clip0_1_13)">
<path d="M561.746 -46.9853L624.6 8.6211C628.174 11.7829 631.878 15.0602 635.706 18.4466C645.784 27.2505 654.995 37.0326 658.643 51.0376C664.823 73.4856 668.088 99.5622 692.652 105.292C699.124 106.827 705.59 108.501 711.975 110.391C718.361 112.28 724.666 114.386 730.815 116.786C755.918 124.892 767.573 149.41 777.875 173.099C779.935 177.837 781.941 182.542 783.989 187.075C805.537 230.957 853.51 196.324 883.739 182.245C897.738 176.015 912.415 182.468 914.435 199.276C918.625 232.703 917.907 267.991 937.599 295.624C942.25 301.973 947.452 307.13 952.891 311.844C958.331 316.559 963.968 320.925 969.76 325.089C973.662 328.005 977.637 330.83 981.693 333.745C985.128 336.163 988.535 338.597 991.913 341.075C995.292 343.554 998.642 346.078 1001.93 348.673C1013 356.6 1020.93 367.25 1027.49 378.955C1029.7 382.822 1031.75 386.801 1033.86 390.731C1041.84 405.392 1050.74 421.752 1067.62 426.234C1092.45 433.178 1116.72 426.898 1141.99 424.422C1165.56 422.099 1167.27 449.734 1173.54 467.04C1174.8 470.111 1176.33 472.45 1178.39 474.918C1184.83 483.89 1192.79 490.6 1198.78 499.339C1201.33 502.691 1203.59 506.337 1205.69 510.135C1207.8 513.933 1209.74 517.882 1211.65 521.84C1214.2 527.118 1216.7 532.41 1219.45 537.382C1223.46 544.186 1228.59 549.871 1233.87 555.739C1249.83 571.435 1248.7 595.256 1246.06 617.09C1242.2 648.947 1232.26 686.847 1258.81 709.033C1277.41 724.51 1303.21 718.268 1323.08 707.433C1341.64 697.071 1360.18 680.162 1382.49 684.089C1387.57 685.464 1392.35 688.011 1396.78 692.026C1401.6 696.011 1405.81 699.742 1409.47 702.977L1426.42 717.975M572.426 -60.2888L634.877 -5.04045C638.427 -1.89963 642.079 1.39308 645.912 4.72237C646.414 5.15987 646.915 5.60283 647.41 6.04803C651.841 10.0027 656.065 14.1814 659.676 18.862C663.728 24.1255 667.018 29.9912 668.97 36.8493C675.968 58.6368 679.979 83.0542 704.471 87.9391C710.954 89.2289 717.432 90.6556 723.834 92.3156C726.437 92.9885 729.027 93.6997 731.602 94.4549C735.364 95.5622 739.074 96.8689 742.801 98.0926C751.68 101.007 759.099 105.529 765.213 111.865C776.348 123.408 783.25 139.256 789.532 154.757C791.48 159.534 793.295 164.311 795.306 168.851C808.631 198.908 834.327 193.864 858.777 184.025C862.766 182.433 866.729 180.701 870.616 178.951C874.786 177.058 878.867 175.155 882.786 173.368C885.962 171.922 889.013 170.549 891.913 169.362C900.897 165.716 910.137 167.196 916.221 173.133C919.557 176.378 921.918 180.966 922.796 186.798C923.562 191.891 924.227 197.035 924.829 202.209C925.414 207.2 925.956 212.213 926.538 217.211C929.22 240.56 932.696 263.554 945.806 282.839C950.195 289.296 955.299 294.536 960.698 299.3C966.097 304.063 971.817 308.352 977.621 312.482C981.529 315.263 985.427 318.067 989.485 320.814C992.929 323.147 996.393 325.426 999.81 327.778C1003.22 330.13 1006.55 332.593 1009.92 334.983C1020.89 342.75 1029.08 352.693 1035.9 363.943C1038.16 367.677 1040.29 371.531 1042.49 375.342C1044.44 378.743 1046.48 382.239 1048.64 385.682C1050.78 389.128 1053.07 392.498 1055.57 395.611C1058.13 398.782 1060.92 401.689 1064.05 404.147C1067.72 407.043 1071.86 409.254 1076.62 410.587C1088.27 413.849 1099.83 414.3 1111.44 413.55C1124.56 412.707 1137.75 410.631 1150.93 409.79C1154.73 409.546 1157.94 410.081 1160.68 411.235C1174.56 417.091 1175.95 438.58 1181.02 452.939C1182.12 456.027 1183.69 458.299 1185.54 460.866C1191.88 469.72 1198.96 477.094 1205.26 485.679C1207.76 489.087 1210.16 492.624 1212.33 496.354C1214.49 500.084 1216.52 503.942 1218.53 507.799C1221.23 512.95 1223.85 518.13 1226.8 522.94C1229.56 527.434 1232.89 531.393 1236.36 535.307C1238.04 537.192 1239.71 539.115 1241.49 540.956C1247.42 547.09 1251.24 554.071 1253.26 561.937C1254.38 566.309 1255 570.87 1255.28 575.525C1255.7 582.759 1255.26 590.218 1254.56 597.549C1254.41 599.151 1254.25 600.748 1254.08 602.335C1253.23 610.492 1252.11 619.043 1251.43 627.201C1249.34 651.031 1249.88 675.339 1269.59 691.949C1270.51 692.715 1271.43 693.434 1272.38 694.107C1282.39 701.21 1294.23 702.647 1306.01 700.931C1315.65 699.531 1325.25 696.069 1333.78 691.728C1347.92 684.521 1361.97 673.607 1377.58 670.662C1382.6 669.71 1387.83 669.33 1393.17 670.614C1393.52 670.7 1393.88 670.822 1394.22 670.934C1398.89 672.437 1403.09 675.221 1407.43 678.671C1407.88 679.023 1408.29 679.392 1408.72 679.749C1413.01 683.343 1416.8 686.7 1420.13 689.648C1420.38 689.869 1420.62 690.085 1420.86 690.3L1437.12 704.674M583.107 -73.5924L645.153 -18.7023C648.682 -15.581 652.31 -12.3123 656.117 -9.00179C656.618 -8.56597 657.113 -8.12818 657.608 -7.68456C662.004 -3.76192 666.204 0.381857 669.828 5.01168C673.887 10.225 677.23 15.9814 679.297 22.6609C687.114 43.7881 691.863 66.5983 716.29 70.5864C722.782 71.647 729.271 72.8088 735.695 74.2422C738.309 74.8203 740.912 75.4383 743.499 76.1074C747.276 77.0876 751.026 78.2687 754.785 79.4009C763.735 82.0929 771.291 86.4783 777.465 92.9293C788.692 104.671 795.241 120.733 801.187 136.418C803.012 141.236 804.719 146.048 806.62 150.627C819.162 180.797 843.381 177.145 867.205 169.048C871.11 167.721 875.018 166.284 878.863 164.783C882.988 163.171 887.044 161.524 890.968 159.966C894.134 158.708 897.185 157.521 900.086 156.482C909.004 153.281 918.114 154.9 924.265 160.795C927.669 164.036 930.126 168.574 931.154 174.32C932.053 179.344 932.839 184.436 933.538 189.567C934.222 194.524 934.84 199.517 935.478 204.507C938.376 227.73 941.654 250.637 954.011 270.05C958.181 276.577 963.146 281.935 968.504 286.751C973.861 291.565 979.626 295.829 985.485 299.871C989.375 302.552 993.227 305.279 997.276 307.88C1000.75 310.111 1004.25 312.252 1007.69 314.479C1011.13 316.704 1014.51 319.028 1017.91 321.293C1028.94 328.634 1037.27 338.111 1044.31 348.932C1046.65 352.526 1048.84 356.252 1051.11 359.95C1053.15 363.263 1055.27 366.669 1057.48 370.074C1059.68 373.477 1061.99 376.811 1064.54 379.906C1067.12 383.053 1069.94 385.944 1073.06 388.421C1076.74 391.338 1080.88 393.581 1085.63 394.943C1097.24 398.281 1108.84 398.764 1120.5 398.077C1133.64 397.302 1146.92 395.529 1159.88 395.163C1163.6 395.059 1166.73 395.703 1169.4 396.959C1182.86 403.296 1183.88 424.475 1188.49 438.848C1189.48 441.929 1190.94 444.228 1192.66 446.824C1198.61 455.809 1205.32 463.438 1211.73 472.033C1214.26 475.43 1216.7 478.923 1218.94 482.584C1221.18 486.246 1223.28 490.022 1225.4 493.77C1228.23 498.808 1231.04 503.824 1234.11 508.51C1236.99 512.87 1240.39 516.74 1243.9 520.593C1245.61 522.453 1247.3 524.354 1249.09 526.183C1255.04 532.263 1258.89 539.229 1260.94 547.152C1262.09 551.53 1262.74 556.093 1263.05 560.748C1263.53 567.992 1263.11 575.456 1262.5 582.797C1262.36 584.398 1262.22 585.996 1262.08 587.59C1261.36 595.778 1260.53 604.359 1260.2 612.121C1259.25 634.814 1260.72 658.182 1280.35 674.876C1281.26 675.651 1282.19 676.375 1283.13 677.06C1293.06 684.273 1304.89 685.859 1316.65 684.397C1326.29 683.208 1335.9 680.037 1344.46 676.036C1358.66 669.395 1372.77 659.229 1388.32 656.813C1393.33 656.023 1398.53 655.785 1403.83 657.152C1404.19 657.244 1404.53 657.37 1404.88 657.489C1409.54 659.062 1413.74 661.871 1418.06 665.328C1418.51 665.68 1418.92 666.052 1419.35 666.413C1423.64 670.021 1427.44 673.383 1430.78 676.336C1431.03 676.556 1431.27 676.773 1431.51 676.987L1447.78 691.387M593.788 -86.8968L655.429 -32.3639C658.934 -29.2632 662.54 -26.0171 666.321 -22.7273C666.818 -22.2954 667.31 -21.8596 667.8 -21.4199C672.162 -17.5275 676.343 -13.4212 679.976 -8.84532C684.039 -3.68376 687.436 1.96685 689.623 8.46732C698.257 28.9307 703.749 50.1316 728.104 53.2289C734.606 54.0567 741.106 54.9608 747.548 56.1624C750.173 56.6457 752.788 57.1724 755.391 57.755C759.183 58.6082 762.97 59.6619 766.766 60.7023C775.788 63.1736 783.481 67.4192 789.716 73.9867C801.036 85.9254 807.251 102.191 812.839 118.071C814.549 122.928 816.141 127.779 817.934 132.396C829.697 162.675 852.457 160.465 875.634 154.066C879.458 153.01 883.305 151.858 887.112 150.611C891.187 149.275 895.218 147.887 899.149 146.558C902.307 145.491 905.358 144.49 908.257 143.59C917.109 140.843 926.074 142.608 932.308 148.45C935.773 151.698 938.333 156.177 939.511 161.834C940.543 166.794 941.452 171.83 942.247 176.919C943.025 181.843 943.733 186.813 944.418 191.796C947.59 214.885 950.543 237.765 962.217 257.254C966.149 263.87 970.994 269.332 976.311 274.196C981.623 279.058 987.434 283.298 993.339 287.253C997.211 289.839 1001.04 292.485 1005.07 294.937C1008.56 297.066 1012.1 299.07 1015.57 301.169C1019.06 303.267 1022.47 305.453 1025.9 307.592C1036.99 314.509 1045.47 323.515 1052.72 333.908C1055.13 337.362 1057.41 340.961 1059.74 344.549C1061.85 347.771 1064.05 351.094 1066.31 354.451C1068.57 357.808 1070.92 361.112 1073.49 364.185C1076.11 367.31 1078.95 370.187 1082.08 372.679C1085.76 375.62 1089.89 377.89 1094.62 379.281C1106.22 382.697 1117.84 383.211 1129.55 382.581C1142.73 381.872 1156.08 380.402 1168.82 380.517C1172.47 380.55 1175.53 381.302 1178.12 382.66C1191.16 389.474 1191.81 410.346 1195.95 424.735C1196.84 427.805 1198.2 430.141 1199.79 432.757C1205.34 441.876 1211.69 449.754 1218.19 458.358C1220.76 461.746 1223.24 465.197 1225.56 468.791C1227.87 472.384 1230.06 476.073 1232.26 479.717C1235.24 484.637 1238.22 489.494 1241.44 494.056C1244.43 498.283 1247.89 502.065 1251.46 505.857C1253.19 507.689 1254.9 509.568 1256.71 511.391C1262.66 517.414 1266.56 524.366 1268.64 532.348C1269.8 536.734 1270.48 541.297 1270.82 545.951C1271.36 553.204 1270.98 560.672 1270.44 568.03C1270.32 569.628 1270.2 571.231 1270.09 572.825C1269.5 581.041 1268.95 589.651 1268.99 597.02C1269.11 618.565 1271.56 641.004 1291.12 657.783C1292.02 658.56 1292.95 659.295 1293.88 659.989C1303.75 667.314 1315.55 669.05 1327.3 667.841C1336.94 666.863 1346.54 663.983 1355.15 660.323C1369.41 654.246 1383.57 644.829 1399.07 642.939C1404.05 642.313 1409.23 642.218 1414.5 643.668C1414.86 643.764 1415.2 643.896 1415.55 644.019C1420.19 645.662 1424.38 648.494 1428.7 651.96C1429.13 652.317 1429.56 652.689 1429.99 653.05C1434.27 656.671 1438.07 660.04 1441.42 662.998C1441.67 663.217 1441.91 663.436 1442.16 663.651L1458.47 678.075M604.469 -100.2L665.707 -46.0235C669.189 -42.9444 672.773 -39.7181 676.529 -36.4509C677.022 -36.021 677.512 -35.5871 677.999 -35.1504C682.324 -31.2904 686.498 -27.2292 690.128 -22.6954C694.21 -17.5977 697.644 -12.0423 699.95 -5.72096C709.403 14.0819 715.638 33.6645 739.923 35.8762C746.436 36.4693 752.948 37.1158 759.408 38.089C762.044 38.4776 764.672 38.911 767.289 39.4074C771.098 40.1352 774.921 41.0617 778.753 42.0087C787.844 44.2576 795.674 48.3667 801.969 55.0491C813.381 67.1866 819.264 83.6545 824.496 99.7297C826.09 104.627 827.566 109.513 829.25 114.171C840.236 144.555 861.535 143.801 884.065 139.089C887.808 138.307 891.594 137.434 895.359 136.441C899.386 135.379 903.391 134.252 907.328 133.154C910.475 132.276 913.525 131.464 916.428 130.704C925.207 128.412 934.045 130.31 940.35 136.107C943.882 139.352 946.538 143.779 947.866 149.349C949.033 154.242 950.06 159.223 950.953 164.271C951.829 169.162 952.616 174.11 953.353 179.082C956.758 202.043 959.507 224.84 970.417 244.456C974.136 251.142 978.835 256.724 984.109 261.636C989.384 266.546 995.232 270.765 1001.19 274.63C1005.05 277.121 1008.84 279.686 1012.85 281.992C1016.37 284.02 1019.95 285.888 1023.46 287.857C1026.97 289.828 1030.42 291.873 1033.89 293.888C1045.03 300.378 1053.65 308.917 1061.13 318.882C1063.62 322.196 1065.95 325.669 1068.37 329.143C1070.54 332.277 1072.81 335.515 1075.14 338.827C1077.47 342.137 1079.86 345.411 1082.46 348.465C1085.1 351.567 1087.96 354.428 1091.09 356.936C1094.78 359.901 1098.91 362.197 1103.62 363.62C1115.19 367.113 1126.85 367.658 1138.59 367.088C1151.82 366.447 1165.24 365.276 1177.77 365.87C1181.34 366.038 1184.33 366.9 1186.86 368.36C1199.46 375.647 1199.75 396.218 1203.42 410.618C1204.2 413.677 1205.46 416.049 1206.93 418.689C1212.07 427.942 1218.06 436.07 1224.67 444.682C1227.26 448.059 1229.8 451.468 1232.17 454.991C1234.56 458.516 1236.83 462.119 1239.13 465.658C1242.26 470.458 1245.42 475.159 1248.77 479.597C1251.86 483.689 1255.39 487.384 1259.01 491.114C1260.77 492.919 1262.5 494.777 1264.31 496.591C1270.28 502.555 1274.22 509.5 1276.34 517.537C1277.52 521.928 1278.23 526.492 1278.6 531.147C1279.19 538.41 1278.85 545.882 1278.4 553.252C1278.29 554.85 1278.19 556.455 1278.1 558.053C1277.64 566.302 1277.37 574.935 1277.78 581.913C1278.99 602.305 1282.4 623.819 1301.89 640.681C1302.8 641.462 1303.72 642.207 1304.64 642.914C1314.42 650.349 1326.22 652.233 1337.96 651.279C1347.6 650.512 1357.2 647.924 1365.84 644.604C1380.16 639.091 1394.37 630.461 1409.82 629.062C1414.79 628.611 1419.95 628.647 1425.17 630.181C1425.52 630.283 1425.86 630.419 1426.2 630.547C1430.84 632.26 1435.03 635.116 1439.34 638.591C1439.77 638.949 1440.2 639.323 1440.63 639.684C1444.92 643.317 1448.72 646.693 1452.08 649.656C1452.32 649.875 1452.57 650.096 1452.81 650.31L1469.15 664.76M615.15 -113.504L675.984 -59.6851C679.442 -56.6267 683.004 -53.4229 686.734 -50.1744C687.224 -49.7484 687.71 -49.3185 688.193 -48.8847C692.486 -45.0572 696.64 -41.0334 700.278 -36.5514C704.369 -31.5076 707.851 -26.0557 710.277 -19.9131C720.548 -0.77048 727.535 17.1898 751.741 18.52C758.266 18.8784 764.786 19.2799 771.269 20.0086C773.914 20.3077 776.555 20.6462 779.188 21.0544C783.012 21.6552 786.87 22.4564 790.739 23.3115C799.901 25.3398 807.869 29.3089 814.224 36.1063C825.727 48.4389 831.28 65.1084 836.151 81.383C837.63 86.3196 838.991 91.2403 840.565 95.9416C850.777 126.432 870.62 127.141 892.495 124.11C896.158 123.602 899.879 123.01 903.608 122.272C907.584 121.486 911.565 120.615 915.511 119.75C918.648 119.063 921.695 118.437 924.602 117.822C933.302 115.979 942.018 118.014 948.397 123.768C951.995 127.013 954.751 131.387 956.227 136.871C957.528 141.698 958.678 146.622 959.663 151.632C960.636 156.489 961.505 161.415 962.294 166.379C965.931 189.211 968.444 211.953 978.627 231.669C982.119 238.438 986.68 244.128 991.917 249.09C997.154 254.049 1003.05 258.249 1009.07 262.02C1012.88 264.416 1016.65 266.898 1020.64 269.058C1024.19 270.983 1027.81 272.713 1031.35 274.555C1034.9 276.398 1038.39 278.307 1041.88 280.196C1053.08 286.264 1061.87 294.316 1069.55 303.869C1072.12 307.038 1074.52 310.39 1077 313.75C1079.25 316.794 1081.6 319.949 1083.99 323.214C1086.36 326.479 1088.79 329.72 1091.42 332.754C1094.09 335.833 1096.97 338.68 1100.1 341.206C1103.81 344.195 1107.93 346.515 1112.63 347.97C1124.16 351.54 1135.86 352.116 1147.65 351.605C1160.91 351.032 1174.4 350.158 1186.73 351.234C1190.22 351.539 1193.13 352.509 1195.59 354.075C1207.77 361.827 1207.68 382.099 1210.9 396.518C1211.57 399.566 1212.73 401.975 1214.07 404.639C1218.8 414.028 1224.44 422.404 1231.14 431.027C1233.76 434.39 1236.35 437.757 1238.8 441.215C1241.25 444.674 1243.6 448.188 1246 451.622C1249.27 456.303 1252.61 460.846 1256.1 465.161C1259.3 469.118 1262.9 472.724 1266.56 476.395C1268.35 478.171 1270.11 480.009 1271.93 481.812C1277.91 487.72 1281.88 494.651 1284.04 502.747C1285.23 507.144 1285.96 511.711 1286.37 516.364C1287.02 523.636 1286.71 531.113 1286.34 538.498C1286.25 540.094 1286.17 541.701 1286.1 543.302C1285.78 551.58 1285.77 560.237 1286.56 566.827C1288.85 586.063 1293.24 606.655 1312.65 623.601C1313.56 624.388 1314.47 625.14 1315.4 625.856C1325.11 633.403 1336.89 635.435 1348.61 634.732C1358.25 634.176 1367.85 631.878 1376.52 628.898C1390.92 623.948 1405.17 616.078 1420.56 615.197C1425.52 614.914 1430.65 615.088 1435.84 616.705C1436.19 616.814 1436.52 616.954 1436.87 617.086C1441.48 618.87 1445.68 621.751 1449.97 625.234C1450.41 625.592 1450.84 625.966 1451.26 626.33C1455.56 629.977 1459.37 633.357 1462.73 636.325C1462.98 636.546 1463.23 636.765 1463.47 636.981L1479.83 651.455M625.831 -126.807L686.261 -73.3477C689.696 -70.308 693.234 -67.1287 696.938 -63.9009C697.424 -63.4779 697.908 -63.049 698.388 -62.6182C702.646 -58.8211 706.784 -54.8384 710.427 -50.4035C714.527 -45.4144 718.061 -40.0672 720.602 -34.1032C731.692 -15.6207 739.428 0.713485 763.558 1.16565C770.095 1.28938 776.627 1.43481 783.127 1.93362C785.784 2.13798 788.437 2.38512 791.082 2.70723C794.921 3.18086 798.817 3.85474 802.722 4.61809C811.955 6.42407 820.059 10.2567 826.476 17.1707C838.071 29.7021 843.294 46.5732 847.806 63.0433C849.168 68.0171 850.416 72.9747 851.882 77.7195C861.324 108.31 879.706 110.503 900.927 109.137C904.51 108.906 908.164 108.589 911.854 108.108C915.78 107.597 919.735 106.984 923.692 106.35C926.814 105.85 929.858 105.414 932.773 104.939C941.387 103.54 949.942 105.779 956.441 111.43C960.132 114.64 962.957 118.997 964.585 124.393C966.02 129.153 967.289 134.022 968.373 138.991C969.443 143.814 970.392 148.719 971.235 153.675C975.102 176.377 977.375 199.071 986.828 218.881C990.095 225.73 994.535 231.53 999.725 236.543C1004.92 241.548 1010.85 245.729 1016.92 249.41C1020.72 251.711 1024.45 254.109 1028.42 256.125C1032.01 257.946 1035.67 259.541 1039.24 261.257C1042.81 262.97 1046.35 264.741 1049.87 266.506C1061.13 272.149 1070.06 279.735 1077.95 288.857C1080.6 291.884 1083.07 295.109 1085.62 298.36C1087.95 301.315 1090.38 304.387 1092.82 307.605C1095.25 310.814 1097.72 314.036 1100.38 317.046C1103.08 320.104 1105.98 322.94 1109.11 325.478C1112.83 328.492 1116.96 330.839 1121.64 332.324C1133.14 335.972 1144.87 336.577 1156.7 336.127C1170 335.623 1183.55 335.042 1195.67 336.604C1199.08 337.043 1201.93 338.121 1204.31 339.791C1216.07 348.008 1215.62 367.983 1218.36 382.418C1218.94 385.456 1219.98 387.9 1221.2 390.587C1225.53 400.115 1230.8 408.736 1237.61 417.369C1240.26 420.722 1242.9 424.045 1245.42 427.433C1247.94 430.824 1250.37 434.252 1252.87 437.581C1256.29 442.142 1259.81 446.528 1263.43 450.719C1266.74 454.539 1270.4 458.058 1274.11 461.668C1275.91 463.418 1277.7 465.233 1279.54 467.029C1285.52 472.881 1289.54 479.799 1291.73 487.952C1292.94 492.356 1293.7 496.922 1294.15 501.574C1294.85 508.856 1294.6 516.338 1294.28 523.735C1294.21 525.331 1294.15 526.941 1294.11 528.546C1293.92 536.854 1294.19 545.532 1295.35 551.735C1298.72 569.807 1304.08 589.486 1323.42 606.517C1324.32 607.308 1325.23 608.068 1326.15 608.797C1335.8 616.453 1347.55 618.634 1359.27 618.186C1368.91 617.843 1378.5 615.835 1387.21 613.195C1401.67 608.81 1415.98 601.7 1431.31 601.336C1436.24 601.216 1441.36 601.531 1446.5 603.23C1446.85 603.346 1447.19 603.491 1447.53 603.627C1452.13 605.482 1456.32 608.387 1460.6 611.878C1461.04 612.239 1461.47 612.613 1461.89 612.979C1466.19 616.64 1470.01 620.027 1473.37 623C1473.62 623.221 1473.87 623.441 1474.11 623.657L1490.5 638.156M636.512 -140.112L696.539 -87.0073C699.951 -83.9882 703.467 -80.8316 707.146 -77.6235C707.628 -77.2034 708.108 -76.7784 708.587 -76.3486C712.812 -72.585 716.929 -68.6386 720.579 -64.2536C724.688 -59.3193 728.271 -54.0746 730.93 -48.2894C742.841 -30.4704 751.33 -15.7652 775.377 -16.1867C781.925 -16.3012 788.468 -16.4089 794.986 -16.1416C797.653 -16.0319 800.319 -15.8781 802.978 -15.6421C806.832 -15.2955 810.763 -14.7468 814.707 -14.0738C824.006 -12.4899 832.253 -8.79611 838.729 -1.76682C850.416 10.9633 855.314 28.0324 859.463 44.7018C860.71 49.7142 861.845 54.7087 863.199 59.492C871.876 90.1821 888.791 93.8735 909.359 94.156C912.862 94.2053 916.45 94.1602 920.105 93.9374C923.977 93.6984 927.908 93.3458 931.875 92.9459C934.987 92.6326 938.023 92.3828 940.949 92.0546C949.473 91.0948 957.965 93.4215 964.488 99.0883C968.219 102.33 971.171 106.603 972.946 111.911C974.517 116.605 975.892 121.42 977.082 126.346C978.273 131.271 979.278 136.021 980.18 140.965C984.273 163.536 986.304 186.187 995.038 206.087C998.081 213.021 1002.38 218.928 1007.53 223.989C1012.68 229.043 1018.65 233.206 1024.79 236.793C1028.56 239.002 1032.26 241.311 1036.21 243.183C1039.83 244.901 1043.51 246.36 1047.12 247.948C1050.74 249.535 1054.31 251.167 1057.86 252.806C1069.18 258.026 1078.25 265.142 1086.37 273.835C1089.09 276.723 1091.63 279.821 1094.26 282.959C1096.66 285.822 1099.17 288.811 1101.65 291.985C1104.15 295.16 1106.65 298.34 1109.34 301.331C1112.08 304.364 1115 307.187 1118.13 309.741C1121.85 312.782 1125.98 315.154 1130.65 316.669C1142.12 320.395 1153.88 321.03 1165.76 320.639C1179.09 320.204 1192.71 319.914 1204.62 321.963C1207.95 322.535 1210.72 323.723 1213.04 325.498C1224.38 334.173 1223.57 353.857 1225.83 368.311C1226.31 371.338 1227.24 373.819 1228.33 376.526C1232.26 386.192 1237.17 395.061 1244.08 403.702C1246.76 407.044 1249.45 410.326 1252.04 413.646C1254.64 416.967 1257.15 420.311 1259.74 423.533C1263.32 427.975 1267 432.198 1270.76 436.272C1274.18 439.954 1277.9 443.39 1281.66 446.936C1283.5 448.66 1285.3 450.455 1287.15 452.242C1293.15 458.037 1297.19 464.949 1299.43 473.153C1300.65 477.567 1301.45 482.131 1301.93 486.782C1302.69 494.073 1302.47 501.559 1302.23 508.97C1302.18 510.564 1302.14 512.175 1302.12 513.784C1302.07 522.122 1302.61 530.818 1304.14 536.639C1308.58 553.539 1314.93 572.313 1334.2 589.426C1335.1 590.22 1336.01 590.99 1336.92 591.731C1346.49 599.499 1358.22 601.829 1369.93 601.634C1379.57 601.502 1389.16 599.786 1397.9 597.487C1412.42 593.664 1426.78 587.314 1442.06 587.469C1446.98 587.519 1452.07 587.973 1457.18 589.753C1457.52 589.874 1457.86 590.024 1458.2 590.167C1462.79 592.09 1466.98 595.021 1471.24 598.519C1471.69 598.881 1472.11 599.257 1472.54 599.625C1476.84 603.298 1480.66 606.69 1484.03 609.669C1484.28 609.89 1484.53 610.111 1484.78 610.329L1501.19 624.852M647.193 -153.415L706.815 -100.669C710.204 -97.6705 713.697 -94.5355 717.351 -91.347C717.83 -90.9309 718.306 -90.5069 718.781 -90.0829C722.973 -86.3489 727.073 -82.4437 730.728 -78.1086C734.846 -73.2282 738.479 -68.0881 741.257 -62.4816C753.987 -45.3221 763.23 -32.2561 787.194 -33.5416C793.756 -33.8939 800.306 -34.2532 806.844 -34.2159C809.525 -34.2001 812.2 -34.1394 814.876 -33.9895C818.745 -33.7701 822.713 -33.3487 826.693 -32.7676C836.06 -31.4037 844.448 -27.8503 850.982 -20.704C862.763 -7.7776 867.332 9.49146 871.117 26.3605C872.251 31.4098 873.27 36.4395 874.513 41.2684C882.429 72.0597 897.868 77.2605 917.788 79.1808C921.212 79.5118 924.734 79.7381 928.351 79.7701C932.17 79.8049 936.076 79.7062 940.054 79.5423C943.151 79.4145 946.182 79.3528 949.12 79.1688C957.548 78.6407 965.938 81.1216 972.531 86.7486C976.33 89.9873 979.38 94.2111 981.306 99.4309C983.011 104.058 984.511 108.82 985.795 113.703C987.079 118.586 988.159 123.322 989.117 128.258C993.434 150.702 995.223 173.314 1003.24 193.296C1006.06 200.316 1010.23 206.327 1015.34 211.437C1020.45 216.541 1026.45 220.686 1032.65 224.18C1036.39 226.296 1040.08 228.515 1044.01 230.247C1047.65 231.859 1051.37 233.182 1055.01 234.646C1058.65 236.105 1062.26 237.599 1065.85 239.111C1077.22 243.909 1086.43 250.556 1094.78 258.822C1097.56 261.568 1100.18 264.539 1102.89 267.565C1105.36 270.34 1107.94 273.243 1110.5 276.37C1113.04 279.498 1115.58 282.647 1118.31 285.618C1121.07 288.628 1124.02 291.437 1127.14 294.005C1130.87 297.069 1134.99 299.467 1139.65 301.015C1151.08 304.818 1162.89 305.483 1174.8 305.152C1188.18 304.783 1201.85 304.783 1213.57 307.325C1216.82 308.03 1219.52 309.327 1221.77 311.21C1232.68 320.339 1231.51 339.734 1233.3 354.208C1233.68 357.225 1234.5 359.74 1235.47 362.471C1238.97 372.277 1243.54 381.389 1250.55 390.04C1253.26 393.372 1256 396.608 1258.66 399.862C1261.33 403.116 1263.93 406.37 1266.61 409.49C1270.32 413.812 1274.18 417.883 1278.09 421.826C1281.61 425.381 1285.41 428.722 1289.21 432.21C1291.07 433.906 1292.9 435.68 1294.76 437.456C1300.77 443.196 1304.84 450.095 1307.14 458.357C1308.36 462.776 1309.19 467.341 1309.71 471.994C1310.51 479.294 1310.33 486.786 1310.18 494.211C1310.14 495.803 1310.12 497.418 1310.13 499.03C1310.21 507.399 1311.02 516.111 1312.92 521.549C1318.43 537.269 1325.77 555.145 1344.96 572.342C1345.85 573.143 1346.76 573.919 1347.67 574.672C1357.17 582.549 1368.88 585.031 1380.57 585.088C1390.21 585.168 1399.81 583.742 1408.59 581.784C1423.17 578.528 1437.57 572.935 1452.8 573.608C1457.71 573.824 1462.77 574.418 1467.85 576.281C1468.19 576.408 1468.52 576.563 1468.86 576.71C1473.42 578.703 1477.62 581.658 1481.88 585.165C1482.31 585.528 1482.74 585.905 1483.17 586.275C1487.47 589.961 1491.31 593.358 1494.68 596.342C1494.94 596.565 1495.18 596.785 1495.43 597.003L1511.87 611.552M657.874 -166.719L717.092 -114.33C720.459 -111.352 723.927 -108.24 727.555 -105.074C728.032 -104.658 728.504 -104.237 728.976 -103.816C733.133 -100.117 737.213 -96.2488 740.877 -91.9626C745.002 -87.138 748.683 -82.1005 751.582 -76.6757C765.128 -60.1778 775.129 -48.7507 799.01 -50.8993C805.588 -51.4905 812.145 -52.1034 818.701 -52.2962C821.392 -52.3744 824.08 -52.4066 826.769 -52.3438C830.653 -52.2517 834.657 -51.9554 838.675 -51.4681C848.109 -50.3224 856.638 -46.9094 863.235 -39.6492C875.108 -26.5227 879.351 -9.05858 882.773 8.01184C883.794 13.1015 884.7 18.1646 885.827 23.0358C892.986 53.9243 906.942 60.6444 926.219 64.1968C929.562 64.8094 933.017 65.3056 936.601 65.5954C940.368 65.9005 944.247 66.0607 948.239 66.133C951.323 66.1903 954.347 66.3151 957.293 66.279C965.621 66.1778 973.912 68.82 980.576 74.4016C984.444 77.6394 987.588 81.8117 989.663 86.9422C991.5 91.506 993.121 96.2107 994.498 101.053C995.849 105.782 997.05 110.619 998.054 115.545C1002.6 137.858 1004.14 160.436 1011.45 180.499C1014.03 187.607 1018.07 193.718 1023.14 198.88C1028.21 204.032 1034.25 208.161 1040.5 211.559C1044.23 213.585 1047.89 215.712 1051.79 217.305C1055.47 218.808 1059.22 220.001 1062.9 221.336C1066.58 222.669 1070.22 224.024 1073.84 225.41C1085.26 229.787 1094.62 235.964 1103.19 243.798C1106.05 246.406 1108.75 249.25 1111.52 252.162C1114.06 254.846 1116.72 257.666 1119.33 260.751C1121.92 263.819 1124.51 266.95 1127.27 269.9C1130.06 272.887 1133.03 275.682 1136.15 278.265C1139.89 281.355 1144.01 283.778 1148.65 285.356C1160.06 289.237 1171.9 289.934 1183.86 289.66C1197.27 289.36 1211 289.641 1222.52 292.68C1225.68 293.516 1228.26 294.996 1230.5 296.913C1241.29 306.129 1239.46 325.604 1240.77 340.095C1241.04 343.101 1241.75 345.653 1242.61 348.409C1245.7 358.352 1249.91 367.711 1257.03 376.37C1259.76 379.694 1262.55 382.886 1265.28 386.071C1268.01 389.256 1270.7 392.423 1273.48 395.439C1277.35 399.639 1281.37 403.559 1285.42 407.374C1289.04 410.798 1292.89 414.072 1296.76 417.474C1298.65 419.14 1300.5 420.895 1302.37 422.663C1308.38 428.347 1312.5 435.234 1314.84 443.553C1316.07 447.981 1316.93 452.545 1317.48 457.198C1318.34 464.509 1318.2 472.003 1318.12 479.443C1318.1 481.034 1318.1 482.651 1318.13 484.266C1318.34 492.664 1319.43 501.392 1321.71 506.448C1328.28 520.986 1336.62 537.967 1355.73 555.25C1356.62 556.055 1357.52 556.839 1358.42 557.604C1367.86 565.594 1379.54 568.222 1391.23 568.533C1400.87 568.822 1410.45 567.689 1419.27 566.069C1433.92 563.377 1448.38 558.544 1463.55 559.733C1468.44 560.117 1473.48 560.849 1478.51 562.795C1478.86 562.928 1479.19 563.087 1479.53 563.239C1484.07 565.303 1488.28 568.281 1492.52 571.796C1492.95 572.161 1493.38 572.54 1493.81 572.91C1498.11 576.62 1501.96 580.011 1505.33 583.002C1505.58 583.225 1505.83 583.445 1506.07 583.663L1522.55 598.238M668.554 -180.022L727.37 -127.991C730.714 -125.033 734.162 -121.943 737.763 -118.796C738.236 -118.384 738.704 -117.967 739.172 -117.549C743.295 -113.88 747.357 -110.051 751.03 -105.815C755.165 -101.044 758.896 -96.112 761.912 -90.8639C776.277 -75.0266 787.035 -65.2456 810.832 -68.2522C817.423 -69.0843 823.991 -69.9488 830.565 -70.3696C833.267 -70.5438 835.968 -70.665 838.67 -70.6913C842.57 -70.7264 846.609 -70.5552 850.663 -70.1599C860.162 -69.2352 868.835 -65.9617 875.49 -58.5847C887.454 -45.264 891.375 -27.5984 894.43 -10.3263C895.338 -5.19941 896.13 -0.0997082 897.145 4.81527C903.551 35.7988 916.005 44.0699 934.653 49.2248C937.91 50.1247 941.302 50.8817 944.853 51.433C948.403 51.9842 952.422 52.4239 956.423 52.736C959.494 52.9752 962.508 53.2867 965.469 53.4013C973.696 53.72 981.89 56.5269 988.624 62.0683C992.558 65.3053 995.805 69.4261 998.02 74.4706C999.997 78.9689 1001.73 83.6186 1003.21 88.4204C1004.69 93.2221 1005.94 97.929 1007 102.847C1011.78 125.03 1013.06 147.58 1019.65 167.717C1022.01 174.914 1025.92 181.129 1030.95 186.339C1035.97 191.539 1042.06 195.654 1048.37 198.956C1052.07 200.89 1055.71 202.922 1059.58 204.377C1063.45 205.831 1067.08 206.834 1070.78 208.041C1074.5 209.247 1078.18 210.464 1081.83 211.722C1093.29 215.68 1102.81 221.386 1111.6 228.79C1114.54 231.258 1117.3 233.973 1120.13 236.775C1122.76 239.368 1125.49 242.105 1128.16 245.143C1130.83 248.182 1133.44 251.265 1136.23 254.192C1139.06 257.158 1142.03 259.94 1145.17 262.538C1148.91 265.652 1153.02 268.101 1157.65 269.711C1169.03 273.67 1180.91 274.397 1192.91 274.184C1206.35 273.951 1220.15 274.511 1231.47 278.053C1234.55 279.02 1237.12 280.535 1239.22 282.633C1249.3 292.657 1247.41 311.491 1248.24 326C1248.41 328.995 1249.01 331.586 1249.73 334.362C1252.4 344.447 1256.27 354.05 1263.49 362.717C1266.26 366.032 1269.1 369.181 1271.89 372.297C1274.7 375.415 1277.47 378.493 1280.34 381.405C1284.36 385.486 1288.55 389.253 1292.74 392.94C1296.46 396.231 1300.41 399.399 1304.3 402.755C1306.22 404.403 1308.09 406.127 1309.98 407.887C1316 413.516 1320.15 420.392 1322.52 428.766C1323.78 433.199 1324.67 437.765 1325.25 442.418C1326.16 449.738 1326.06 457.238 1326.06 464.689C1326.05 466.279 1326.08 467.898 1326.13 469.516C1326.48 477.944 1327.82 486.684 1330.49 491.366C1338.1 504.718 1347.45 520.806 1366.5 538.172C1367.39 538.981 1368.28 539.775 1369.17 540.55C1378.53 548.649 1390.21 551.428 1401.88 551.993C1411.52 552.494 1421.11 551.634 1429.96 550.372C1444.66 548.216 1459.17 544.172 1474.29 545.877C1479.16 546.427 1484.17 547.3 1489.18 549.329C1489.51 549.469 1489.85 549.632 1490.18 549.789C1494.72 551.922 1498.92 554.925 1503.15 558.449C1503.58 558.816 1504.01 559.197 1504.43 559.568C1508.74 563.292 1512.59 566.691 1515.97 569.684C1516.23 569.907 1516.48 570.128 1516.72 570.347L1533.23 584.945M679.236 -193.327L737.646 -141.653C740.966 -138.715 744.409 -135.67 747.968 -132.521C748.435 -132.107 748.902 -131.697 749.37 -131.281C753.457 -127.642 757.502 -123.854 761.18 -119.667C765.323 -114.95 769.104 -110.121 772.237 -105.054C787.423 -89.8793 798.937 -81.7481 822.649 -85.6061C829.254 -86.6799 835.83 -87.7922 842.424 -88.445C845.137 -88.7131 847.85 -88.9283 850.567 -89.0397C854.482 -89.201 858.558 -89.1561 862.649 -88.8536C872.216 -88.147 881.028 -85.014 887.745 -77.5242C899.8 -64.0042 903.402 -46.1451 906.088 -28.6719C906.882 -23.5082 907.56 -18.3713 908.463 -13.4157C914.119 17.6662 925.051 27.4847 943.083 34.2406C946.255 35.43 949.587 36.4473 953.101 37.2567C956.757 38.101 960.591 38.7718 964.605 39.3252C967.661 39.7462 970.666 40.2427 973.643 40.5081C981.761 41.2364 989.864 44.218 996.673 49.7193C1000.67 52.9519 1004.02 57.0229 1006.39 61.9816C1008.49 66.4124 1010.35 71.0055 1011.92 75.7684C1013.47 80.4299 1014.83 85.2239 1015.94 90.1316C1020.95 112.185 1021.97 134.708 1027.86 154.918C1029.99 162.207 1033.77 168.519 1038.76 173.781C1043.74 179.029 1049.86 183.133 1056.23 186.335C1059.9 188.182 1063.53 190.114 1067.37 191.433C1071.21 192.753 1074.94 193.651 1078.68 194.731C1082.42 195.81 1086.13 196.885 1089.82 198.021C1101.33 201.556 1111.01 206.792 1120.02 213.766C1123.02 216.095 1125.86 218.681 1128.77 221.373C1131.47 223.876 1134.28 226.526 1137.01 229.521C1139.71 232.496 1142.38 235.567 1145.2 238.473C1148.05 241.414 1151.05 244.183 1154.18 246.798C1157.94 249.936 1162.05 252.412 1166.65 254.05C1178.01 258.087 1189.93 258.846 1201.96 258.691C1215.45 258.528 1229.31 259.361 1240.42 263.407C1243.43 264.501 1245.93 266.127 1247.96 268.335C1257.62 278.8 1255.36 297.359 1255.71 311.889C1255.79 314.872 1256.26 317.499 1256.88 320.298C1259.13 330.521 1262.65 340.373 1269.98 349.047C1272.76 352.35 1275.65 355.456 1278.53 358.505C1281.4 361.557 1284.26 364.545 1287.23 367.353C1291.4 371.311 1295.75 374.928 1300.08 378.488C1303.91 381.652 1307.92 384.724 1311.87 388.02C1313.81 389.64 1315.7 391.343 1317.6 393.092C1323.64 398.666 1327.83 405.526 1330.24 413.959C1331.5 418.4 1332.43 422.965 1333.04 427.616C1334.01 434.945 1333.94 442.448 1334.01 449.916C1334.03 451.504 1334.08 453.125 1334.16 454.748C1334.63 463.206 1336.23 471.96 1339.29 476.261C1347.94 488.427 1358.3 503.625 1377.28 521.075C1378.16 521.888 1379.05 522.69 1379.94 523.478C1389.23 531.69 1400.89 534.616 1412.55 535.434C1422.18 536.147 1431.77 535.581 1440.65 534.655C1455.43 533.068 1469.98 529.778 1485.05 532.003C1489.91 532.721 1494.9 533.732 1499.86 535.844C1500.2 535.987 1500.53 536.156 1500.87 536.317C1505.39 538.522 1509.57 541.549 1513.79 545.079C1514.23 545.448 1514.65 545.83 1515.09 546.202C1519.38 549.94 1523.25 553.343 1526.64 556.341C1526.9 556.565 1527.15 556.786 1527.39 557.005L1543.92 571.629M689.916 -206.63L758.172 -146.246C758.635 -145.837 759.101 -145.428 759.564 -145.015C763.618 -141.408 767.644 -137.658 771.329 -133.522C775.48 -128.86 779.313 -124.135 782.564 -119.246C798.568 -104.732 810.838 -98.2565 834.464 -102.963C841.083 -104.281 847.667 -105.642 854.279 -106.523C857.003 -106.886 859.728 -107.193 862.459 -107.392C866.389 -107.681 870.5 -107.761 874.628 -107.55C884.26 -107.064 893.216 -104.071 899.993 -96.4626C912.143 -82.7465 915.42 -64.6888 917.739 -47.0144C918.422 -41.812 918.988 -36.6384 919.775 -31.6412C924.688 -0.463134 934.078 10.9082 951.511 19.2639C954.595 20.7409 957.864 22.017 961.346 23.0914C964.95 24.2025 968.758 25.1286 972.782 25.9234C975.829 26.5242 978.818 27.2058 981.809 27.6276C989.83 28.7585 997.838 31.9236 1004.71 37.3815C1008.78 40.6115 1012.23 44.6344 1014.74 49.5037C1016.99 53.869 1018.96 58.407 1020.63 63.1294C1022.3 67.8519 1023.7 72.5282 1024.87 77.4292C1030.1 99.353 1030.86 121.855 1036.06 142.132C1037.95 149.511 1041.62 155.925 1046.56 161.235C1051.5 166.531 1057.65 170.624 1064.09 173.727C1067.73 175.486 1071.35 177.317 1075.16 178.501C1078.95 179.677 1082.79 180.479 1086.56 181.432C1090.34 182.382 1094.09 183.329 1097.81 184.33C1109.36 187.466 1119.19 192.21 1128.43 198.754C1131.51 200.942 1134.35 203.482 1137.4 205.981C1140.24 208.315 1143.05 210.96 1145.84 213.911C1148.62 216.861 1151.31 219.881 1154.16 222.766C1157.04 225.683 1160.06 228.44 1163.2 231.071C1166.96 234.234 1171.06 236.735 1175.66 238.406C1186.99 242.519 1198.93 243.306 1211.01 243.212C1224.53 243.118 1238.45 244.22 1249.36 248.776C1252.29 249.997 1254.72 251.735 1256.69 254.052C1265.93 264.956 1263.31 283.241 1263.18 297.789C1263.16 300.762 1263.52 303.426 1264.02 306.247C1265.84 316.61 1269.01 326.706 1276.44 335.389C1279.26 338.681 1282.2 341.744 1285.15 344.725C1288.09 347.709 1290.97 350.692 1294.09 353.314C1298.52 357.028 1302.93 360.617 1307.41 364.048C1311.34 367.079 1315.42 370.061 1319.41 373.295C1321.38 374.888 1323.3 376.57 1325.21 378.312C1331.25 383.829 1335.48 390.68 1337.93 399.168C1339.21 403.614 1340.16 408.183 1340.81 412.832C1341.83 420.17 1341.81 427.679 1341.96 435.159C1341.99 436.746 1342.05 438.37 1342.16 439.994C1342.77 448.482 1344.62 457.251 1348.07 461.173C1357.73 472.16 1369.14 486.459 1388.03 503.994C1388.92 504.812 1389.81 505.621 1390.69 506.421C1399.9 514.743 1411.54 517.819 1423.19 518.891C1432.83 519.817 1442.42 519.542 1451.34 518.956C1466.18 517.938 1480.77 515.402 1495.79 518.144C1500.62 519.026 1505.59 520.179 1510.52 522.374C1510.86 522.523 1511.19 522.697 1511.52 522.863C1516.02 525.137 1520.22 528.191 1524.42 531.729C1524.86 532.099 1525.28 532.481 1525.72 532.856C1530.02 536.608 1533.89 540.016 1537.28 543.02C1537.53 543.246 1537.78 543.467 1538.03 543.687L1554.6 558.335M700.598 -219.934L768.378 -159.971C768.837 -159.564 769.3 -159.158 769.759 -158.749C773.776 -155.174 777.788 -151.463 781.478 -147.376C785.639 -142.77 789.518 -138.145 792.89 -133.436C809.712 -119.582 822.738 -114.767 846.281 -120.317C852.912 -121.879 859.507 -123.489 866.138 -124.599C868.872 -125.056 871.611 -125.456 874.355 -125.74C878.302 -126.158 882.445 -126.36 886.613 -126.246C896.309 -125.976 905.409 -123.125 912.244 -115.402C924.486 -101.487 927.447 -83.2365 929.393 -65.356C929.964 -60.1188 930.416 -54.9084 931.088 -49.8647C935.26 -18.5912 943.09 -5.66482 959.942 4.28875C962.931 6.05572 966.148 7.58802 969.592 8.92411C973.038 10.2603 976.93 11.4851 980.961 12.5217C983.996 13.3026 986.974 14.1641 989.982 14.7436C997.889 16.2685 1005.81 19.6223 1012.75 25.0438C1016.89 28.2712 1020.44 32.2425 1023.09 37.0259C1025.48 41.3257 1027.57 45.8086 1029.34 50.4887C1031.1 55.1686 1032.59 59.8342 1033.81 64.7233C1039.26 86.5187 1039.76 108.997 1044.26 129.341C1045.92 136.814 1049.45 143.323 1054.36 148.682C1059.26 154.026 1065.44 158.109 1071.94 161.111C1075.57 162.782 1079.16 164.51 1082.94 165.562C1086.72 166.614 1090.64 167.301 1094.44 168.126C1098.25 168.949 1102.04 169.764 1105.79 170.633C1117.39 173.37 1127.37 177.621 1136.84 183.735C1139.98 185.783 1142.97 188.111 1146.01 190.583C1148.87 192.904 1151.82 195.388 1154.67 198.294C1157.51 201.2 1160.23 204.187 1163.12 207.051C1166.02 209.946 1169.08 212.69 1172.2 215.333C1175.98 218.523 1180.08 221.049 1184.66 222.747C1195.95 226.938 1207.94 227.757 1220.06 227.721C1233.62 227.693 1247.59 229.061 1258.31 234.134C1261.16 235.482 1263.51 237.333 1265.41 239.759C1274.25 251.099 1271.27 269.117 1270.65 283.682C1270.52 286.647 1270.77 289.344 1271.14 292.188C1272.54 302.689 1275.38 313.033 1282.91 321.725C1285.76 325.006 1288.75 328.027 1291.76 330.94C1294.77 333.854 1297.81 336.664 1300.95 339.268C1305.44 342.981 1310.11 346.299 1314.73 349.602C1318.76 352.503 1322.92 355.393 1326.96 358.566C1328.95 360.134 1330.85 361.849 1332.82 363.525C1339 368.816 1343.13 375.826 1345.62 384.37C1346.92 388.826 1347.89 393.391 1348.58 398.041C1349.67 405.388 1349.66 412.901 1349.9 420.395C1349.94 421.981 1350.03 423.608 1350.17 425.236C1350.91 433.754 1353.2 442.319 1356.85 446.079C1366.98 456.512 1379.98 469.288 1398.81 486.905C1399.68 487.729 1400.57 488.545 1401.44 489.357C1410.58 497.789 1422.21 501.014 1433.84 502.339C1443.48 503.474 1453.06 503.494 1462.02 503.246C1476.93 502.795 1491.57 501.016 1506.53 504.274C1511.35 505.323 1516.29 506.619 1521.19 508.892C1521.52 509.049 1521.85 509.225 1522.18 509.397C1526.66 511.74 1530.86 514.817 1535.05 518.365C1535.49 518.738 1535.92 519.122 1536.35 519.497C1540.66 523.265 1544.54 526.677 1547.93 529.685C1548.19 529.91 1548.44 530.132 1548.69 530.353L1565.27 545.026M711.279 -233.238L768.477 -182.635C771.728 -179.76 775.099 -176.778 778.584 -173.694C779.039 -173.292 779.496 -172.888 779.955 -172.481C783.94 -168.939 787.93 -165.266 791.631 -161.228C795.8 -156.678 799.73 -152.159 803.217 -147.626C820.859 -134.432 834.64 -131.285 858.101 -137.672C864.749 -139.482 871.35 -141.336 877.998 -142.675C880.745 -143.23 883.495 -143.717 886.255 -144.09C890.217 -144.635 894.395 -144.962 898.6 -144.94C908.359 -144.887 917.604 -142.18 924.501 -134.339C936.836 -120.228 939.48 -101.778 941.052 -83.6995C941.51 -78.4236 941.85 -73.1764 942.408 -68.094C945.842 -36.7217 952.09 -22.2476 968.376 -10.6925C971.274 -8.63521 974.437 -6.849 977.845 -5.2469C981.257 -3.64577 985.108 -2.16959 989.147 -0.884453C992.171 0.0727462 995.139 1.11586 998.165 1.85685C1005.97 3.76827 1013.8 7.31967 1020.81 12.7013C1025.01 15.9261 1028.66 19.8473 1031.46 24.5416C1033.99 28.7757 1036.19 33.2022 1038.05 37.8414C1039.89 42.404 1041.48 47.1303 1042.76 52.0126C1048.43 73.6781 1048.65 96.1408 1052.48 116.548C1053.9 124.114 1057.31 130.722 1062.18 136.131C1067.03 141.525 1073.25 145.6 1079.82 148.498C1083.4 150.083 1086.98 151.703 1090.74 152.625C1094.6 153.573 1098.5 154.124 1102.34 154.823C1106.19 155.519 1110.01 156.189 1113.8 156.94C1125.43 159.24 1135.58 163.013 1145.26 168.72C1148.48 170.621 1151.54 172.826 1154.65 175.189C1157.58 177.418 1160.61 179.819 1163.52 182.681C1166.42 185.542 1169.17 188.497 1172.09 191.34C1175.03 194.211 1178.1 196.943 1181.22 199.601C1185.01 202.815 1189.1 205.368 1193.67 207.097C1204.93 211.366 1216.95 212.215 1229.12 212.24C1242.71 212.281 1256.76 213.908 1267.26 219.501C1270.03 220.973 1272.33 222.936 1274.14 225.475C1282.58 237.248 1279.24 255.003 1278.12 269.581C1277.9 272.534 1278.03 275.268 1278.29 278.135C1279.25 288.772 1281.75 299.365 1289.39 308.065C1292.26 311.339 1295.31 314.312 1298.39 317.159C1301.48 320.005 1304.59 322.725 1307.83 325.227C1312.47 328.816 1317.31 331.986 1322.07 335.161C1326.21 337.933 1330.43 340.729 1334.52 343.842C1336.54 345.381 1338.47 347.071 1340.43 348.743C1346.62 353.995 1350.8 360.977 1353.33 369.577C1354.63 374.038 1355.65 378.605 1356.37 383.255C1357.51 390.614 1357.54 398.13 1357.85 405.638C1357.91 407.222 1358.03 408.852 1358.18 410.483C1359.05 419.033 1361.4 427.842 1365.65 430.99C1377.32 439.649 1390.84 452.121 1409.58 469.823C1410.46 470.651 1411.34 471.476 1412.21 472.301C1421.28 480.845 1432.88 484.218 1444.51 485.796C1454.14 487.143 1463.73 487.457 1472.71 487.543C1487.7 487.662 1502.37 486.637 1517.29 490.415C1522.09 491.632 1527.01 493.066 1531.86 495.422C1532.2 495.585 1532.52 495.766 1532.86 495.943C1537.33 498.358 1541.52 501.461 1545.7 505.014C1546.14 505.386 1546.57 505.771 1547 506.148C1551.31 509.931 1555.19 513.347 1558.6 516.36C1558.85 516.584 1559.11 516.807 1559.36 517.028L1575.96 531.726M721.959 -246.542L788.789 -187.419C789.243 -187.017 789.696 -186.616 790.15 -186.216C794.101 -182.704 798.072 -179.07 801.779 -175.082C805.957 -170.585 809.936 -166.17 813.543 -161.817C832.003 -149.287 846.537 -147.803 869.918 -155.025C876.578 -157.083 883.19 -159.182 889.856 -160.75C892.615 -161.399 895.377 -161.979 898.15 -162.439C902.127 -163.112 906.34 -163.562 910.586 -163.633C920.408 -163.799 929.797 -161.232 936.755 -153.277C949.179 -138.968 951.509 -120.322 952.708 -102.041C953.058 -96.7284 953.283 -91.4445 953.725 -86.3174C956.428 -54.8482 961.076 -38.8316 976.807 -25.6679C979.608 -23.3241 982.719 -21.2815 986.101 -19.4132C989.474 -17.5449 993.277 -15.8148 997.333 -14.2865C1000.35 -13.1501 1003.3 -11.9307 1006.34 -11.0264C1014.03 -8.73318 1021.77 -4.98073 1028.85 0.361265C1033.13 3.58161 1036.87 7.4567 1039.82 12.0614C1042.49 16.228 1044.8 20.6015 1046.77 25.1984C1048.73 29.7954 1050.36 34.4325 1051.7 39.3062C1057.59 60.84 1057.55 83.2856 1060.68 103.757C1061.86 111.415 1065.16 118.12 1069.98 123.579C1074.79 129.021 1081.05 133.091 1087.68 135.881C1091.24 137.38 1094.8 138.891 1098.53 139.685C1102.25 140.479 1106.35 140.945 1110.23 141.515C1114.1 142.084 1117.96 142.62 1121.79 143.24C1133.46 145.132 1143.77 148.417 1153.67 153.699C1156.97 155.459 1160.1 157.535 1163.28 159.787C1166.3 161.922 1169.39 164.242 1172.35 167.06C1175.32 169.877 1178.11 172.799 1181.05 175.622C1184.02 178.471 1187.11 181.189 1190.24 183.863C1194.03 187.101 1198.12 189.679 1202.67 191.44C1213.91 195.786 1225.97 196.664 1238.17 196.75C1251.8 196.858 1265.92 198.741 1276.21 204.859C1278.9 206.457 1281.13 208.53 1282.87 211.181C1290.91 223.384 1287.2 240.88 1285.59 255.472C1285.27 258.416 1285.29 261.184 1285.43 264.076C1285.96 274.848 1288.12 285.691 1295.87 294.399C1298.76 297.661 1301.86 300.593 1305.01 303.371C1308.17 306.152 1311.38 308.778 1314.7 311.182C1319.49 314.645 1324.5 317.668 1329.4 320.714C1333.63 323.357 1337.94 326.059 1342.07 329.112C1344.12 330.625 1346.07 332.288 1348.05 333.956C1354.23 339.167 1358.45 346.121 1361.03 354.778C1362.35 359.247 1363.4 363.813 1364.14 368.463C1365.34 375.832 1365.41 383.349 1365.79 390.873C1365.88 392.456 1366.01 394.087 1366.19 395.723C1367.19 404.302 1369.79 413.14 1374.44 415.896C1387.11 423.411 1401.68 434.951 1420.35 452.736C1421.22 453.568 1422.1 454.402 1422.97 455.239C1431.97 463.893 1443.54 467.415 1455.16 469.246C1464.79 470.805 1474.38 471.413 1483.4 471.838C1498.44 472.524 1513.16 472.253 1528.04 476.549C1532.81 477.931 1537.71 479.504 1542.53 481.946C1542.86 482.114 1543.19 482.3 1543.52 482.482C1547.98 484.967 1552.16 488.094 1556.33 491.656C1556.77 492.032 1557.2 492.42 1557.63 492.796C1561.96 496.558 1565.83 500.013 1569.24 503.032C1569.49 503.259 1569.74 503.482 1569.99 503.703L1586.64 518.427M732.641 -259.845L789.03 -209.959C792.236 -207.123 795.559 -204.183 798.995 -201.143C799.445 -200.745 799.895 -200.347 800.347 -199.947C804.265 -196.469 808.217 -192.874 811.929 -188.934C816.114 -184.493 820.144 -180.18 823.869 -176.007C843.148 -164.137 858.433 -164.328 881.735 -172.38C888.406 -174.685 895.028 -177.031 901.713 -178.827C904.482 -179.571 907.256 -180.243 910.043 -180.789C914.035 -181.587 918.283 -182.163 922.567 -182.328C932.453 -182.709 941.987 -180.288 949.004 -172.218C961.522 -157.712 963.538 -138.871 964.361 -120.384C964.598 -115.033 964.713 -109.713 965.035 -104.545C967.009 -72.9758 970.044 -55.4312 985.236 -40.6472C987.933 -38.0188 991.005 -35.7169 994.339 -33.5853C997.673 -31.4538 1001.45 -29.4693 1005.51 -27.6912C1008.5 -26.3787 1011.45 -24.983 1014.5 -23.9131C1022.09 -21.2463 1029.74 -17.2837 1036.89 -11.9816C1041.23 -8.76591 1045.08 -4.9421 1048.17 -0.42154C1050.97 3.67763 1053.41 7.99599 1055.47 12.5544C1057.52 17.1127 1059.24 21.7336 1060.63 26.5969C1066.74 48.0027 1066.41 70.4299 1068.88 90.9637C1069.81 98.7147 1073 105.519 1077.78 111.026C1082.55 116.516 1088.84 120.585 1095.53 123.267C1099.06 124.682 1102.61 126.079 1106.31 126.746C1110.25 127.459 1114.2 127.766 1118.11 128.209C1122.02 128.651 1125.9 129.053 1129.77 129.543C1141.49 131.027 1151.95 133.822 1162.08 138.68C1165.44 140.299 1168.66 142.245 1171.91 144.391C1174.99 146.434 1178.28 148.533 1181.18 151.445C1184.04 154.317 1187.02 157.106 1190.01 159.909C1193 162.734 1196.2 165.324 1199.25 168.13C1202.93 171.534 1207.13 173.996 1211.67 175.789C1222.87 180.214 1234.97 181.122 1247.22 181.266C1260.89 181.444 1275.06 183.576 1285.16 190.221C1287.77 191.94 1289.93 194.131 1291.6 196.89C1299.24 209.525 1295.15 226.76 1293.05 241.368C1292.64 244.3 1292.52 247.103 1292.55 250.019C1292.65 260.924 1294.48 272.019 1302.32 280.736C1305.25 283.989 1308.41 286.879 1311.63 289.586C1314.84 292.298 1318.15 294.833 1321.57 297.136C1326.51 300.475 1331.67 303.35 1336.72 306.268C1341.05 308.78 1345.44 311.391 1349.62 314.381C1351.69 315.865 1353.66 317.506 1355.65 319.168C1361.82 324.341 1366.11 331.266 1368.71 339.978C1370.05 344.455 1371.13 349.021 1371.91 353.671C1373.16 361.048 1373.26 368.571 1373.74 376.108C1373.83 377.69 1373.98 379.325 1374.19 380.961C1375.32 389.569 1378.17 398.441 1383.21 400.798C1396.88 407.181 1412.51 417.774 1431.11 435.646C1431.98 436.482 1432.85 437.324 1433.71 438.17C1442.64 446.935 1454.19 450.605 1465.8 452.69C1475.44 454.461 1485.02 455.361 1494.08 456.125C1509.19 457.38 1523.95 457.862 1538.77 462.678C1543.54 464.227 1548.4 465.942 1553.19 468.464C1553.52 468.639 1553.85 468.827 1554.17 469.014C1558.61 471.569 1562.81 474.72 1566.95 478.29C1567.4 478.668 1567.83 479.055 1568.25 479.436C1572.59 483.211 1576.47 486.672 1579.88 489.695C1580.14 489.922 1580.39 490.144 1580.64 490.367L1597.31 505.115M743.321 -273.149L799.308 -223.619C802.49 -220.804 805.79 -217.885 809.201 -214.868C809.647 -214.472 810.094 -214.078 810.543 -213.68C814.425 -210.233 818.359 -206.677 822.08 -202.787C826.275 -198.401 830.354 -194.191 834.197 -190.197C854.294 -178.988 870.33 -180.856 893.552 -189.734C900.235 -192.289 906.87 -194.879 913.572 -196.902C916.352 -197.741 919.139 -198.498 921.94 -199.136C925.949 -200.051 930.229 -200.761 934.552 -201.02C944.5 -201.617 954.196 -199.356 961.258 -191.152C973.895 -176.474 975.571 -157.411 976.016 -138.723C976.143 -133.336 976.145 -127.979 976.351 -122.766C977.597 -91.0945 979.007 -72.0358 993.665 -55.6215C996.267 -52.7086 999.29 -50.1484 1002.59 -47.7477C1005.93 -45.3155 1009.62 -43.1148 1013.69 -41.09C1016.68 -39.6012 1019.62 -38.0304 1022.68 -36.792C1030.17 -33.7593 1037.72 -29.5788 1044.94 -24.3186C1049.35 -21.1046 1053.3 -17.3332 1056.53 -12.8979C1059.47 -8.86439 1062.03 -4.60317 1064.18 -0.0851517C1066.31 4.37644 1068.12 9.03931 1069.58 13.894C1075.91 35.1701 1075.28 57.579 1077.09 78.1753C1077.78 86.0195 1080.84 92.9194 1085.59 98.4775C1090.32 104.017 1096.64 108.082 1103.39 110.655C1106.9 111.989 1110.44 113.267 1114.1 113.812C1118.08 114.402 1122.06 114.592 1125.99 114.908C1129.94 115.223 1133.87 115.493 1137.76 115.85C1149.51 116.929 1160.15 119.233 1170.49 123.665C1173.93 125.14 1177.23 126.959 1180.53 128.997C1183.7 130.946 1187.06 132.954 1190.02 135.83C1192.98 138.707 1195.96 141.416 1198.97 144.197C1202 146.999 1205.23 149.57 1208.26 152.393C1211.95 155.831 1216.15 158.31 1220.67 160.133C1231.85 164.635 1243.98 165.572 1256.28 165.777C1269.98 166.024 1284.23 168.405 1294.11 175.581C1296.64 177.421 1298.73 179.726 1300.33 182.598C1307.58 195.663 1303.13 212.641 1300.53 227.259C1300.01 230.182 1299.78 233.018 1299.69 235.957C1299.36 246.991 1300.85 258.342 1308.8 267.066C1311.76 270.309 1314.95 273.154 1318.25 275.792C1321.54 278.437 1324.93 280.878 1328.44 283.084C1333.54 286.294 1338.86 289.026 1344.05 291.816C1348.49 294.199 1352.94 296.715 1357.17 299.645C1359.27 301.102 1361.3 302.681 1363.26 304.374C1369.35 309.617 1373.76 316.405 1376.41 325.175C1377.77 329.66 1378.87 334.227 1379.69 338.873C1380.99 346.26 1381.13 353.788 1381.69 361.34C1381.8 362.921 1381.97 364.557 1382.2 366.199C1383.47 374.838 1386.56 383.746 1392.01 385.699C1406.67 390.963 1423.35 400.598 1441.88 418.552C1442.75 419.394 1443.61 420.244 1444.48 421.102C1453.33 429.979 1464.87 433.797 1476.47 436.136C1486.1 438.118 1495.68 439.313 1504.77 440.413C1519.95 442.237 1534.75 443.471 1549.52 448.806C1554.27 450.52 1559.12 452.377 1563.86 454.982C1564.2 455.162 1564.52 455.356 1564.84 455.548C1569.27 458.171 1573.46 461.35 1577.6 464.927C1578.05 465.305 1578.47 465.698 1578.9 466.076C1583.25 469.864 1587.12 473.331 1590.55 476.359C1590.8 476.586 1591.06 476.81 1591.31 477.031L1608.01 491.805M754.003 -286.453L819.406 -228.591C819.849 -228.2 820.294 -227.807 820.738 -227.414C824.587 -223.999 828.503 -220.483 832.231 -216.639C836.432 -212.308 840.564 -208.202 844.523 -204.385C865.44 -193.836 882.223 -197.386 905.371 -207.087C912.066 -209.893 918.709 -212.726 925.433 -214.978C928.224 -215.912 931.023 -216.76 933.838 -217.486C937.863 -218.528 942.176 -219.362 946.537 -219.717C956.55 -220.529 966.393 -218.412 973.512 -210.095C986.245 -195.222 987.607 -175.959 987.676 -157.069C987.689 -151.643 987.581 -146.249 987.669 -140.998C988.19 -109.224 987.968 -88.659 1002.09 -70.6038C1004.6 -67.4082 1007.58 -64.5886 1010.84 -61.9217C1014.1 -59.2559 1017.8 -56.7732 1021.87 -54.4996C1024.85 -52.8356 1027.78 -51.0934 1030.85 -49.6817C1038.25 -46.2861 1045.69 -41.8876 1052.99 -36.6633C1057.46 -33.4549 1061.51 -29.7311 1064.89 -25.3834C1067.97 -21.4179 1070.64 -17.209 1072.89 -12.7337C1075.11 -8.3055 1077.01 -3.66392 1078.51 1.18192C1085.07 22.3305 1084.15 44.7197 1085.29 65.3815C1085.74 73.3208 1088.7 80.3176 1093.4 85.9237C1098.08 91.5116 1104.43 95.5806 1111.25 98.0377C1114.73 99.2897 1118.26 100.45 1121.89 100.87C1125.91 101.336 1129.92 101.411 1133.88 101.6C1137.87 101.786 1141.82 101.924 1145.75 102.15C1157.54 102.829 1168.34 104.633 1178.91 108.646C1182.41 109.979 1185.79 111.667 1189.17 113.597C1192.41 115.451 1195.85 117.368 1198.86 120.213C1201.82 123.01 1204.9 125.722 1207.94 128.483C1210.99 131.261 1214.25 133.813 1217.28 136.658C1220.97 140.13 1225.18 142.627 1229.69 144.48C1240.83 149.06 1252.99 150.029 1265.32 150.292C1279.06 150.607 1293.4 153.232 1303.06 160.945C1305.52 162.907 1307.54 165.326 1309.06 168.31C1315.91 181.806 1311.08 198.529 1308 213.157C1307.38 216.072 1307.03 218.938 1306.83 221.905C1306.06 233.069 1307.21 244.677 1315.27 253.407C1318.26 256.641 1321.51 259.442 1324.87 262.014C1328.23 264.589 1331.71 266.941 1335.31 269.045C1340.56 272.127 1346.04 274.716 1351.38 277.377C1355.92 279.628 1360.46 282.044 1364.72 284.924C1366.84 286.35 1368.9 287.912 1370.88 289.596C1376.96 294.783 1381.43 301.561 1384.11 310.386C1385.48 314.875 1386.61 319.444 1387.47 324.09C1388.82 331.486 1389 339.02 1389.63 346.584C1389.76 348.163 1389.95 349.801 1390.21 351.446C1391.61 360.116 1394.94 369.064 1400.79 370.614C1416.47 374.767 1434.19 383.435 1452.65 401.476C1453.52 402.32 1454.38 403.179 1455.23 404.05C1464.01 413.037 1475.54 417.005 1487.12 419.597C1496.75 421.789 1506.34 423.278 1515.46 424.716C1530.7 427.107 1545.54 429.095 1560.27 434.952C1565 436.831 1569.81 438.829 1574.53 441.515C1574.86 441.701 1575.18 441.898 1575.51 442.095C1579.92 444.79 1584.11 447.993 1588.24 451.577C1588.67 451.958 1589.1 452.351 1589.54 452.729C1593.89 456.53 1597.76 460.002 1601.19 463.037C1601.45 463.265 1601.7 463.49 1601.95 463.711L1618.68 478.51M764.683 -299.757L829.612 -242.316C830.051 -241.927 830.492 -241.538 830.934 -241.146C834.749 -237.762 838.646 -234.284 842.382 -230.493C846.594 -226.217 850.771 -222.215 854.85 -218.577C876.586 -208.689 894.113 -213.922 917.189 -224.443C923.895 -227.501 930.549 -230.576 937.293 -233.056C940.096 -234.086 942.908 -235.022 945.735 -235.838C949.777 -237.004 954.122 -237.964 958.522 -238.412C968.597 -239.441 978.582 -237.468 985.765 -229.034C998.594 -213.966 999.639 -194.505 999.324 -175.411C999.234 -169.95 999.014 -164.517 998.981 -159.223C998.792 -127.346 996.92 -105.289 1010.53 -85.581C1012.93 -82.1069 1015.87 -79.023 1019.09 -76.09C1022.33 -73.1333 1025.98 -70.4247 1030.06 -67.9014C1033.03 -66.0621 1035.94 -64.1486 1039.02 -62.5645C1046.34 -58.8089 1053.67 -54.1876 1061.03 -49.0003C1065.58 -45.7945 1069.73 -42.1221 1073.26 -37.862C1076.48 -33.9634 1079.27 -29.8158 1081.6 -25.3745C1083.93 -20.985 1085.9 -16.3599 1087.45 -11.5241C1094.22 9.49643 1093.02 31.865 1093.5 52.59C1093.69 60.621 1096.54 67.7161 1101.2 73.3721C1105.84 79.008 1112.22 83.0814 1119.12 85.4244C1122.56 86.5958 1126.07 87.6321 1129.68 87.9342C1133.73 88.2715 1137.77 88.2353 1141.77 88.2977C1145.78 88.3553 1149.77 88.364 1153.74 88.4578C1165.58 88.7369 1176.52 90.0453 1187.31 93.6317C1190.9 94.8238 1194.34 96.3794 1197.79 98.2059C1201.24 100.032 1204.49 101.963 1207.69 104.601C1210.89 107.239 1213.82 110.033 1216.9 112.773C1219.98 115.529 1223.26 118.061 1226.28 120.928C1229.98 124.433 1234.19 126.956 1238.68 128.83C1249.78 133.512 1261.99 134.486 1274.37 134.81C1288.15 135.191 1302.26 138.453 1312 146.309C1314.45 148.292 1316.35 150.928 1317.78 154.022C1324.25 167.949 1319.05 184.418 1315.46 199.053C1314.75 201.96 1314.28 204.857 1313.96 207.849C1312.75 219.139 1313.58 231.006 1321.74 239.747C1324.75 242.969 1328.06 245.727 1331.48 248.231C1334.92 250.738 1338.49 252.996 1342.17 255.003C1347.58 257.955 1353.22 260.416 1358.7 262.933C1363.35 265.068 1367.95 267.376 1372.26 270.198C1374.42 271.596 1376.49 273.137 1378.48 274.811C1384.58 279.947 1389.07 286.708 1391.8 295.591C1393.18 300.089 1394.35 304.656 1395.24 309.302C1396.65 316.71 1396.86 324.247 1397.57 331.823C1397.72 333.401 1397.93 335.042 1398.21 336.69C1399.74 345.389 1403.33 354.381 1409.57 355.522C1426.25 358.572 1445.03 366.267 1463.42 384.391C1464.28 385.242 1465.13 386.107 1465.98 386.989C1474.69 396.087 1486.19 400.205 1497.77 403.05C1507.4 405.453 1516.98 407.236 1526.15 409.012C1541.46 411.972 1556.33 414.711 1571.01 421.089C1575.72 423.134 1580.51 425.272 1585.2 428.041C1585.52 428.235 1585.84 428.436 1586.16 428.638C1590.56 431.402 1594.75 434.63 1598.87 438.222C1599.3 438.604 1599.73 438.999 1600.17 439.381C1604.51 443.192 1608.4 446.674 1611.84 449.712C1612.09 449.94 1612.35 450.164 1612.6 450.388L1629.36 465.211M775.364 -313.06L839.818 -256.041C840.253 -255.655 840.692 -255.266 841.13 -254.88C844.909 -251.526 848.788 -248.091 852.53 -244.347C856.75 -240.127 860.978 -236.226 865.176 -232.767C887.731 -223.542 905.998 -230.458 929.006 -241.798C935.72 -245.106 942.382 -248.438 949.15 -251.132C951.96 -252.264 954.789 -253.282 957.631 -254.187C961.689 -255.477 966.067 -256.564 970.506 -257.108C980.642 -258.349 990.776 -256.524 998.023 -247.973C1010.93 -232.709 1011.68 -213.047 1010.98 -193.757C1010.79 -188.257 1010.46 -182.788 1010.3 -177.452C1009.39 -145.467 1005.88 -121.933 1018.96 -100.561C1021.26 -96.8074 1024.16 -93.4623 1027.33 -90.2621C1030.51 -87.0629 1034.16 -84.08 1038.23 -81.309C1041.21 -79.2915 1044.11 -77.2126 1047.2 -75.4542C1054.42 -71.3435 1061.65 -66.4944 1069.08 -61.347C1073.69 -58.1458 1077.95 -54.524 1081.61 -50.3495C1084.97 -46.5179 1087.88 -42.4236 1090.31 -38.021C1092.74 -33.6654 1094.79 -29.0615 1096.4 -24.2343C1103.38 -3.34286 1101.87 19.0031 1101.71 39.7963C1101.64 47.9175 1104.39 55.1143 1109.01 60.82C1113.61 66.5058 1120.02 70.5853 1126.97 72.8089C1130.4 73.9017 1133.89 74.8116 1137.47 74.9942C1141.56 75.2043 1145.62 75.0574 1149.66 74.9912C1153.71 74.922 1157.73 74.7985 1161.73 74.7596C1173.61 74.6405 1184.71 75.451 1195.73 78.6118C1199.39 79.6611 1202.91 81.0874 1206.42 82.8051C1209.93 84.523 1213.27 86.3858 1216.53 88.9811C1219.73 91.5257 1222.76 94.3354 1225.86 97.0565C1228.98 99.7891 1232.29 102.301 1235.3 105.191C1239 108.728 1243.21 111.268 1247.69 113.176C1258.77 117.933 1271.01 118.941 1283.43 119.322C1297.24 119.771 1311.74 122.883 1320.95 131.67C1323.26 133.872 1325.16 136.525 1326.52 139.732C1332.6 154.091 1327.03 170.309 1322.93 184.947C1322.12 187.846 1321.54 190.773 1321.1 193.791C1319.45 205.206 1319.95 217.334 1328.22 226.082C1331.26 229.297 1334.61 232.009 1338.11 234.446C1341.61 236.887 1345.27 239.048 1349.05 240.958C1354.62 243.78 1360.41 246.107 1366.04 248.487C1370.78 250.496 1375.46 252.709 1379.82 255.468C1382 256.839 1384.1 258.359 1386.09 260.023C1392.21 265.103 1396.73 271.852 1399.51 280.792C1400.91 285.297 1402.1 289.863 1403.03 294.51C1404.48 301.926 1404.73 309.467 1405.52 317.059C1405.68 318.635 1405.91 320.28 1406.23 321.932C1407.89 330.66 1411.74 339.698 1418.37 340.426C1436.08 342.376 1455.88 349.095 1474.19 367.3C1475.05 368.156 1475.9 369.029 1476.75 369.923C1485.39 379.13 1496.87 383.399 1508.43 386.497C1518.06 389.112 1527.65 391.19 1536.84 393.303C1552.22 396.831 1567.13 400.323 1581.76 407.221C1586.45 409.432 1591.22 411.711 1595.87 414.563C1596.2 414.76 1596.51 414.97 1596.83 415.175C1601.21 418.01 1605.43 421.22 1609.51 424.862C1609.94 425.249 1610.38 425.636 1610.81 426.023C1615.13 429.889 1619.06 433.335 1622.5 436.378C1622.76 436.606 1623.01 436.833 1623.26 437.056L1640.04 451.904M786.045 -326.364L850.023 -269.764C850.457 -269.381 850.89 -268.998 851.326 -268.612C855.07 -265.293 858.932 -261.893 862.681 -258.2C866.909 -254.036 871.187 -250.238 875.503 -246.959C898.875 -238.396 917.883 -247 940.823 -259.155C947.545 -262.718 954.222 -266.289 961.009 -269.21C963.83 -270.437 966.672 -271.547 969.527 -272.54C973.601 -273.955 978.011 -275.165 982.495 -275.807C992.686 -277.261 1002.98 -275.585 1010.27 -266.916C1023.28 -251.457 1023.72 -231.594 1022.64 -212.101C1022.33 -206.563 1021.89 -201.056 1021.61 -195.68C1019.99 -163.585 1014.83 -138.582 1027.39 -115.541C1029.58 -111.511 1032.44 -107.901 1035.58 -104.433C1038.72 -100.966 1042.34 -97.7364 1046.42 -94.7156C1049.38 -92.5249 1052.28 -90.2756 1055.37 -88.3438C1062.51 -83.8781 1069.62 -78.8023 1077.11 -73.6927C1081.8 -70.4952 1086.16 -66.9258 1089.97 -62.8339C1093.47 -59.0713 1096.5 -55.0285 1099.02 -50.6696C1101.54 -46.3449 1103.67 -41.7643 1105.33 -36.9456C1112.53 -16.1835 1110.73 6.13675 1109.91 26.9992C1109.59 35.2126 1112.23 42.5057 1116.81 48.2611C1121.37 53.9949 1127.81 58.0841 1134.84 60.1883C1138.22 61.2023 1141.71 61.9845 1145.26 62.051C1149.39 62.1267 1153.47 61.8746 1157.54 61.6798C1161.62 61.4835 1165.68 61.2297 1169.72 61.0549C1181.63 60.5413 1192.9 60.8468 1204.14 63.5853C1207.87 64.4936 1211.47 65.7874 1215.05 67.3998C1218.63 69.0122 1222.04 70.8075 1225.36 73.3569C1228.62 75.8542 1231.69 78.6352 1234.83 81.3341C1237.97 84.0445 1241.3 86.5377 1244.31 89.4481C1248.01 93.0182 1252.22 95.5747 1256.69 97.5152C1267.74 102.344 1280.01 103.388 1292.48 103.829C1306.33 104.347 1320.92 107.695 1329.89 117.025C1332.14 119.347 1333.96 122.118 1335.24 125.435C1340.95 140.226 1334.99 156.192 1330.41 170.837C1329.5 173.727 1328.79 176.682 1328.24 179.728C1326.14 191.263 1326.31 203.657 1334.68 212.41C1337.75 215.614 1341.16 218.283 1344.73 220.651C1348.3 223.023 1352.05 225.089 1355.9 226.905C1361.63 229.595 1367.58 231.789 1373.35 234.034C1378.21 235.921 1382.96 238.032 1387.36 240.731C1389.57 242.075 1391.69 243.573 1393.7 245.229C1399.81 250.256 1404.39 256.992 1407.2 265.987C1408.61 270.497 1409.83 275.068 1410.79 279.711C1412.31 287.137 1412.59 294.684 1413.46 302.288C1413.63 303.864 1413.89 305.51 1414.22 307.166C1416.02 315.924 1420.12 325.007 1427.14 325.328C1445.88 326.178 1466.72 331.919 1484.95 350.208C1485.82 351.069 1486.66 351.951 1487.49 352.858C1496.06 362.177 1507.53 366.593 1519.08 369.944C1528.71 372.77 1538.29 375.141 1547.52 377.591C1562.97 381.689 1577.92 385.932 1592.51 393.352C1597.17 395.728 1601.91 398.147 1606.54 401.083C1606.85 401.286 1607.17 401.5 1607.49 401.71C1611.86 404.615 1616.07 407.857 1620.14 411.499C1620.57 411.886 1621.01 412.277 1621.44 412.666C1625.76 416.547 1629.69 419.997 1633.14 423.046C1633.39 423.274 1633.65 423.501 1633.9 423.725L1650.72 438.598M796.726 -339.668L860.229 -283.489C860.659 -283.109 861.088 -282.728 861.522 -282.345C865.232 -279.055 869.074 -275.696 872.833 -272.051C877.069 -267.941 881.398 -264.247 885.831 -261.146C910.023 -253.242 929.767 -263.537 952.642 -276.504C959.373 -280.32 966.065 -284.13 972.867 -287.282C975.7 -288.603 978.554 -289.805 981.423 -290.884C985.517 -292.424 989.954 -293.767 994.48 -294.493C1004.74 -296.177 1015.17 -294.633 1022.53 -285.849C1035.63 -270.194 1035.76 -250.13 1034.3 -230.438C1033.88 -224.862 1033.32 -219.315 1032.93 -213.9C1030.6 -181.696 1023.8 -155.233 1035.83 -130.514C1037.92 -126.207 1040.74 -122.33 1043.84 -118.596C1046.94 -114.851 1050.52 -111.381 1054.61 -108.113C1057.56 -105.745 1060.45 -103.332 1063.54 -101.22C1070.61 -96.4018 1077.61 -91.0993 1085.16 -86.0257C1089.93 -82.8348 1094.38 -79.3149 1098.33 -75.3077C1101.97 -71.614 1105.1 -67.6246 1107.74 -63.3054C1110.36 -59.0166 1112.56 -54.4532 1114.28 -49.6471C1121.69 -29.0124 1119.57 -6.72098 1118.12 14.2159C1117.55 22.5199 1120.09 29.9145 1124.62 35.7179C1129.14 41.4999 1135.61 45.6022 1142.7 47.5817C1146.06 48.5186 1149.52 49.1695 1153.05 49.12C1157.21 49.0633 1161.33 48.702 1165.44 48.3823C1169.55 48.0591 1173.64 47.6762 1177.71 47.3655C1189.66 46.4589 1201.09 46.2619 1212.55 48.5744C1216.36 49.3414 1220.03 50.5008 1223.68 52.0116C1227.23 53.4827 1230.82 55.2431 1234.21 57.7496C1237.51 60.1994 1240.62 62.9503 1243.79 65.6286C1246.96 68.3168 1250.32 70.7919 1253.33 73.7202C1257.03 77.3238 1261.25 79.8976 1265.7 81.8677C1276.71 86.7719 1289.03 87.8497 1301.53 88.3489C1315.42 88.9347 1330.1 92.523 1338.85 102.391C1341.02 104.833 1342.78 107.719 1343.98 111.15C1349.32 126.369 1342.97 142.093 1337.88 156.736C1336.88 159.619 1336.04 162.603 1335.37 165.676C1332.85 177.332 1332.68 189.993 1341.16 198.754C1344.26 201.947 1347.72 204.574 1351.36 206.873C1355 209.177 1358.84 211.148 1362.79 212.867C1368.68 215.425 1374.78 217.488 1380.7 219.595C1385.65 221.359 1390.47 223.371 1394.92 226.009C1397.16 227.327 1399.3 228.802 1401.32 230.448C1407.44 235.419 1412.05 242.143 1414.9 251.193C1416.33 255.713 1417.59 260.282 1418.58 264.924C1420.15 272.359 1420.46 279.909 1421.42 287.528C1421.61 289.103 1421.88 290.751 1422.25 292.408C1424.18 301.198 1428.53 310.326 1435.94 310.234C1455.71 309.988 1477.57 314.747 1495.74 333.122C1496.59 333.986 1497.43 334.878 1498.26 335.795C1506.76 345.224 1518.21 349.789 1529.75 353.394C1539.37 356.43 1548.95 359.096 1558.21 361.883C1573.73 366.548 1588.73 371.543 1603.26 379.483C1607.92 382.024 1612.63 384.584 1617.21 387.601C1617.53 387.811 1617.85 388.029 1618.16 388.243C1622.52 391.217 1626.73 394.493 1630.79 398.137C1631.22 398.527 1631.65 398.916 1632.09 399.306C1636.41 403.202 1640.35 406.658 1643.8 409.71C1644.06 409.94 1644.32 410.167 1644.57 410.391L1661.41 425.289M807.408 -352.972L870.435 -297.213C870.861 -296.836 871.29 -296.458 871.717 -296.078C875.395 -292.822 879.217 -289.502 882.982 -285.906C887.226 -281.852 891.607 -278.261 896.157 -275.342C921.168 -268.098 941.645 -280.083 964.46 -293.864C971.199 -297.935 977.904 -301.98 984.73 -305.362C987.573 -306.778 990.434 -308.07 993.323 -309.238C997.426 -310.902 1001.9 -312.369 1006.47 -313.194C1016.78 -315.085 1027.36 -313.694 1034.78 -304.791C1047.98 -288.94 1047.81 -268.678 1045.95 -248.784C1045.43 -243.173 1044.76 -237.587 1044.25 -232.131C1041.21 -199.811 1032.76 -171.902 1044.26 -145.496C1046.25 -140.916 1049.03 -136.77 1052.08 -132.769C1055.14 -128.766 1058.7 -125.037 1062.78 -121.52C1065.73 -118.976 1068.62 -116.398 1071.72 -114.109C1078.71 -108.941 1085.59 -103.406 1093.21 -98.3704C1098.03 -95.1861 1102.6 -91.7148 1106.69 -87.7931C1110.47 -84.1664 1113.72 -80.2324 1116.44 -75.952C1119.16 -71.6951 1121.44 -67.155 1123.22 -62.3574C1130.85 -41.8482 1128.41 -19.5913 1126.33 1.42086C1125.49 9.81218 1127.93 17.3094 1132.43 23.1644C1136.9 28.9944 1143.41 33.1136 1150.56 34.9666C1153.89 35.8282 1157.34 36.3443 1160.83 36.1822C1165.04 35.9877 1169.19 35.5247 1173.32 35.0779C1177.47 34.6277 1181.59 34.1145 1185.7 33.6696C1197.69 32.3734 1209.27 31.6698 1220.96 33.5566C1224.83 34.1828 1228.59 35.2094 1232.31 36.6131C1235.94 37.9869 1239.6 39.6683 1243.04 42.1322C1246.48 44.5961 1249.55 47.2572 1252.75 49.9149C1255.96 52.5792 1259.34 55.0358 1262.35 57.9858C1266.04 61.623 1270.26 64.2106 1274.7 66.2142C1285.69 71.1937 1298.03 72.3018 1310.58 72.8644C1324.5 73.5193 1339.29 77.3449 1347.79 87.7553C1349.89 90.3171 1351.58 93.3249 1352.7 96.8619C1357.64 112.526 1350.93 127.991 1345.34 142.633C1344.25 145.508 1343.28 148.518 1342.51 151.621C1339.54 163.395 1339.04 176.323 1347.62 185.092C1350.75 188.276 1354.26 190.859 1357.97 193.09C1361.69 195.326 1365.61 197.2 1369.65 198.823C1375.69 201.25 1381.95 203.182 1388.01 205.151C1393.06 206.792 1397.97 208.704 1402.47 211.283C1404.73 212.572 1406.88 214.029 1408.93 215.665C1415.06 220.582 1419.71 227.293 1422.6 236.399C1424.04 240.925 1425.33 245.494 1426.35 250.136C1427.97 257.58 1428.32 265.137 1429.35 272.769C1429.57 274.343 1429.86 275.992 1430.25 277.652C1432.31 286.471 1436.93 295.646 1444.73 295.142C1465.53 293.797 1488.41 297.577 1506.5 316.036C1507.35 316.905 1508.19 317.802 1509.01 318.733C1517.44 328.275 1528.87 332.985 1540.39 336.845C1550.02 340.094 1559.6 343.051 1568.9 346.175C1584.48 351.41 1599.51 357.153 1614 365.617C1618.63 368.323 1623.32 371.026 1627.88 374.125C1628.2 374.341 1628.51 374.564 1628.82 374.782C1633.15 377.828 1637.37 381.137 1641.42 384.777C1641.85 385.168 1642.28 385.56 1642.72 385.953C1647.04 389.862 1650.99 393.323 1654.45 396.38C1654.71 396.609 1654.97 396.837 1655.22 397.062L1672.08 411.985M818.088 -366.275L880.64 -310.938C881.063 -310.564 881.488 -310.188 881.913 -309.81C885.559 -306.587 889.359 -303.306 893.133 -299.758C897.385 -295.761 901.813 -292.271 906.484 -289.53C932.315 -282.949 953.52 -296.625 976.279 -311.217C983.022 -315.542 989.743 -319.827 996.581 -323.438C999.444 -324.949 1002.32 -326.329 1005.21 -327.588C1009.35 -329.377 1013.85 -330.966 1018.44 -331.887C1028.83 -333.984 1039.56 -332.748 1047.04 -323.731C1060.33 -307.684 1059.88 -287.216 1057.61 -267.128C1056.99 -261.474 1056.2 -255.854 1055.57 -250.357C1051.82 -217.92 1041.71 -188.57 1052.69 -160.473C1054.59 -155.619 1057.33 -151.204 1060.33 -146.936C1063.34 -142.668 1066.89 -138.69 1070.97 -134.924C1073.91 -132.204 1076.79 -129.462 1079.89 -126.994C1086.81 -121.477 1093.56 -115.71 1101.26 -110.709C1106.16 -107.531 1110.81 -104.109 1115.05 -100.273C1118.97 -96.7179 1122.33 -92.8344 1125.15 -88.5947C1127.97 -84.3717 1130.32 -79.8518 1132.15 -75.0658C1140 -54.6849 1137.25 -32.4636 1134.54 -11.3705C1133.44 -2.89234 1135.78 4.70956 1140.24 10.6126C1144.67 16.4906 1151.19 20.6283 1158.42 22.3514C1161.72 23.1379 1165.15 23.5175 1168.62 23.2425C1172.86 22.9071 1177.04 22.3455 1181.21 21.7718C1185.39 21.1945 1189.54 20.5543 1193.7 19.9735C1205.72 18.2878 1217.45 17.0762 1229.37 18.5389C1233.32 19.024 1237.16 19.916 1240.93 21.2163C1244.65 22.4927 1248.37 24.0987 1251.88 26.5163C1255.29 28.8699 1258.48 31.5653 1261.71 34.2007C1264.95 36.8428 1268.36 39.2812 1271.36 42.2512C1275.05 45.92 1279.28 48.5267 1283.71 50.56C1294.66 55.6147 1307.04 56.7569 1319.64 57.3759C1333.6 58.0981 1348.48 62.1623 1356.75 73.1134C1358.77 75.7949 1360.39 78.9183 1361.43 82.5674C1366.01 98.6666 1358.91 113.885 1352.82 128.524C1351.62 131.394 1350.54 134.429 1349.64 137.56C1346.23 149.448 1345.4 162.649 1354.11 171.424C1357.25 174.6 1360.82 177.138 1364.59 179.3C1368.38 181.467 1372.4 183.245 1376.52 184.774C1382.72 187.067 1389.15 188.87 1395.35 190.702C1400.5 192.221 1405.48 194.032 1410.02 196.55C1412.31 197.814 1414.49 199.244 1416.54 200.875C1422.68 205.727 1427.37 212.438 1430.31 221.598C1431.76 226.132 1433.07 230.699 1434.14 235.342C1435.81 242.797 1436.2 250.356 1437.3 258.003C1437.54 259.572 1437.84 261.228 1438.26 262.893C1440.45 271.743 1445.34 280.965 1453.51 280.047C1475.36 277.616 1499.25 280.406 1517.27 298.948C1518.12 299.823 1518.95 300.729 1519.77 301.671C1528.12 311.322 1539.53 316.185 1551.05 320.297C1560.68 323.757 1570.25 327.01 1579.59 330.471C1595.23 336.273 1610.31 342.766 1624.75 351.753C1629.36 354.624 1634.03 357.469 1638.55 360.65C1638.86 360.873 1639.18 361.099 1639.5 361.324C1643.81 364.44 1648.01 367.773 1652.06 371.422C1652.49 371.813 1652.93 372.209 1653.35 372.601C1657.68 376.526 1661.64 379.99 1665.1 383.052C1665.36 383.281 1665.62 383.509 1665.87 383.734L1682.77 398.682M828.769 -379.58L890.846 -324.661C891.265 -324.29 891.686 -323.918 892.109 -323.545C895.717 -320.353 899.503 -317.111 903.284 -313.612C907.546 -309.668 912.023 -306.283 916.813 -303.72C943.462 -297.8 965.376 -313.204 988.101 -328.572C994.842 -333.162 1001.58 -337.674 1008.45 -341.513C1011.31 -343.119 1014.2 -344.591 1017.12 -345.935C1021.26 -347.85 1025.8 -349.56 1030.44 -350.581C1040.88 -352.885 1051.76 -351.803 1059.29 -342.668C1072.68 -326.427 1071.91 -305.756 1069.27 -285.471C1068.53 -279.781 1067.64 -274.119 1066.88 -268.585C1062.43 -236.027 1050.68 -205.242 1061.12 -175.452C1062.92 -170.327 1065.62 -165.643 1068.58 -161.107C1071.55 -156.577 1075.08 -152.343 1079.15 -148.329C1082.09 -145.431 1084.86 -142.378 1088.06 -139.878C1095.16 -134.332 1101.55 -128.016 1109.3 -123.051C1114.26 -119.877 1119.03 -116.509 1123.41 -112.754C1127.47 -109.269 1130.94 -105.436 1133.86 -101.239C1136.78 -97.0492 1139.2 -92.5516 1141.1 -87.7731C1149.15 -67.5167 1146.08 -45.3397 1142.74 -24.1641C1141.39 -15.6004 1143.62 -7.89358 1148.04 -1.94272C1152.44 3.98326 1158.98 8.1432 1166.28 9.73237C1169.55 10.4437 1172.97 10.6852 1176.41 10.3009C1180.68 9.8244 1184.9 9.16433 1189.1 8.46359C1193.32 7.7595 1197.51 6.99587 1201.69 6.27361C1213.76 4.21584 1225.65 2.48078 1237.79 3.51743C1241.81 3.85969 1245.72 4.62084 1249.56 5.81402C1253.36 6.99311 1257.15 8.5202 1260.72 10.8952C1264.28 13.2703 1267.42 15.8667 1270.68 18.483C1273.94 21.1014 1277.39 23.5214 1280.37 26.5115C1284.08 30.2139 1288.3 32.8362 1292.71 34.9026C1303.63 40.0326 1316.05 41.2069 1328.68 41.8857C1342.69 42.6755 1357.68 46.9794 1365.69 58.4717C1367.65 61.2727 1369.2 64.5141 1370.16 68.2732C1374.36 84.8116 1366.91 99.7928 1360.29 114.413C1359 117.279 1357.79 120.337 1356.78 123.5C1352.93 135.5 1351.76 148.975 1360.57 157.758C1363.75 160.925 1367.37 163.417 1371.21 165.515C1375.07 167.615 1379.18 169.289 1383.4 170.729C1389.74 172.877 1396.32 174.565 1402.67 176.256C1407.93 177.656 1412.98 179.364 1417.57 181.819C1419.89 183.055 1422.09 184.468 1424.15 186.086C1430.29 190.89 1435.02 197.581 1438 206.8C1439.46 211.341 1440.81 215.907 1441.9 220.553C1443.64 228.017 1444.04 235.582 1445.25 243.24C1445.49 244.81 1445.82 246.467 1446.26 248.133C1448.59 257.012 1453.74 266.266 1462.3 264.953C1485.19 261.381 1510.09 263.234 1528.04 281.861C1528.88 282.74 1529.71 283.655 1530.53 284.608C1538.8 294.372 1550.19 299.382 1561.7 303.746C1571.33 307.419 1580.91 310.963 1590.27 314.762C1605.98 321.135 1621.1 328.376 1635.5 337.888C1640.1 340.923 1644.72 343.918 1649.21 347.175C1649.53 347.403 1649.85 347.633 1650.15 347.863C1654.46 351.048 1658.65 354.417 1662.69 358.062C1663.13 358.455 1663.56 358.851 1663.99 359.246C1668.32 363.182 1672.28 366.651 1675.75 369.721C1676.01 369.952 1676.27 370.18 1676.52 370.405L1693.45 385.379M839.45 -392.883L902.305 -337.277C905.879 -334.115 909.584 -330.838 913.434 -327.464C917.632 -323.492 922.232 -320.294 927.138 -317.91C966.224 -310.426 995.579 -348.144 1029.01 -364.285C1042.46 -370.996 1060.53 -374.94 1071.54 -361.605C1088.73 -340.514 1082.23 -312.309 1078.2 -286.808C1073.05 -254.126 1061.26 -222.431 1069.54 -190.429C1071.51 -185.133 1073.91 -180.075 1076.82 -175.274C1079.75 -170.474 1083.21 -165.939 1087.33 -161.731C1090.23 -158.62 1093.2 -155.643 1096.24 -152.765C1103.13 -146.666 1109.53 -140.345 1117.35 -135.392C1122.38 -132.24 1127.28 -128.945 1131.77 -125.237C1136 -121.856 1139.56 -118.04 1142.57 -113.884C1145.58 -109.728 1148.03 -105.229 1150.04 -100.481C1158.1 -80.2633 1154.98 -58.2078 1150.95 -36.9547C1147.07 -15.8918 1165.2 0.157264 1184.2 -2.63339C1205.2 -5.60634 1225.23 -12.3847 1246.2 -11.4947C1250.29 -11.2637 1254.28 -10.6708 1258.19 -9.57582C1262.06 -8.49768 1265.85 -6.91845 1269.55 -4.71297C1273 -2.3344 1276.35 0.180227 1279.64 2.77636C1282.93 5.37248 1286.17 8.04063 1289.38 10.7823C1302.61 23.4084 1319.96 25.3695 1337.74 26.4062C1355.19 27.4733 1374.27 34.2328 1378.88 53.9911C1382.61 70.9987 1374.84 85.6884 1367.76 100.317C1361.1 114.021 1355.86 132.906 1367.04 144.101C1378.37 155.106 1394.96 158.022 1410.01 161.816C1415.38 163.025 1420.49 164.702 1425.12 167.096C1434.4 171.886 1441.78 179.556 1445.7 192.008C1447.23 196.538 1448.55 201.125 1449.69 205.768C1451.47 213.241 1451.9 220.812 1453.19 228.484C1454.83 238.424 1460.46 251.895 1471.09 249.866C1496.15 244.93 1523.39 246.168 1541.28 267.55C1549.49 277.424 1560.86 282.583 1572.36 287.202C1598.14 297.6 1623.56 307.678 1646.24 324.027C1651.18 327.379 1656.07 330.8 1660.82 334.406C1665.57 338.013 1670.2 341.805 1674.63 345.898C1679.31 350.116 1683.52 353.847 1687.18 357.082L1704.14 372.08" stroke="url(#paint0_linear_1_13)" stroke-width="3" stroke-miterlimit="10"/>
</g>
<defs>
<linearGradient id="paint0_linear_1_13" x1="1212.1" y1="-304.18" x2="1107.53" y2="684.27" gradientUnits="userSpaceOnUse">
<stop stop-color="#7551FE"/>
<stop offset="0.322917" stop-color="white"/>
<stop offset="0.671875" stop-color="white"/>
<stop offset="1" stop-color="#7551FF"/>
</linearGradient>
<clipPath id="clip0_1_13">
<rect width="1402" height="731" fill="white"/>
</clipPath>
</defs>
</svg>
